<svg width="1440" height="581" viewBox="0 0 1440 581" fill="none" xmlns="http://www.w3.org/2000/svg">
<path d="M31.5502 509.026L-124.167 338.963L-39.4337 110.283L-38.2067 110.737L193.418 72.1714L345.795 254.071L345.45 255.003L259.874 481.251L258.724 481.532L31.5502 509.026ZM-119.987 338.038L31.7433 503.797L79.7124 375.278L17.6859 309.187L18.0313 308.254L53.1827 215.27L-37.6713 115.883L-119.987 338.038ZM82.895 376.104L34.9259 504.623L257.114 477.402L340.848 256.125L206.86 272.208L172.897 366.693L82.895 376.104ZM21.8659 308.262L81.2091 371.239L114.672 281.869L55.9812 218.073L21.8659 308.262ZM117.74 283.005L84.3916 372.064L170.022 363.154L202.604 272.397L117.74 283.005ZM58.8578 215.959L116.935 279.527L201.991 269.343L144.144 205.154L58.8578 215.959ZM145.219 201.312L146.139 201.653L206.785 268.646L340.044 252.647L191.73 75.7862L-35.1014 113.654L55.5609 212.617L145.219 201.312Z" fill="white" fill-opacity="0.1"/>
<path d="M1333.37 449.458L1183.49 417.077L1141.52 260.434L1142.36 260.209L1253.18 150.219L1405.8 190.306L1405.97 190.944L1446.55 346.592L1446.04 347.187L1333.37 449.458ZM1185.4 414.968L1331.46 446.547L1308.06 358.379L1249 346.376L1248.82 345.737L1232.14 281.776L1144.63 262.794L1185.4 414.968ZM1310.11 357.603L1333.51 445.772L1443.58 345.565L1403.91 193.323L1337.4 253.57L1355.31 317.889L1310.11 357.603ZM1250.91 344.267L1307.32 355.612L1291.11 294.261L1234.73 282.22L1250.91 344.267ZM1293.21 293.698L1309.36 354.837L1352.39 317.075L1335.17 255.31L1293.21 293.698ZM1235.48 279.967L1291.43 292.12L1333.66 253.889L1277.59 241.31L1235.48 279.967ZM1276.7 238.812L1277.33 238.644L1335.99 251.667L1402.13 191.745L1253.66 152.829L1145.16 260.597L1232.41 279.422L1276.7 238.812Z" fill="white" fill-opacity="0.1"/>
</svg>
