<svg width="44" height="41" viewBox="0 0 44 41" fill="none" xmlns="http://www.w3.org/2000/svg">
<path d="M41.4941 20.4888C41.3284 20.4888 41.1695 20.423 41.0523 20.3058C40.9352 20.1887 40.8694 20.0298 40.8694 19.8641V10.702C40.869 10.3109 40.7136 9.93599 40.437 9.65948C40.1605 9.38296 39.7856 9.22747 39.3945 9.22713H25.3962C25.2305 9.22713 25.0716 9.16132 24.9544 9.04417C24.8373 8.92702 24.7715 8.76813 24.7715 8.60246C24.7715 8.43678 24.8373 8.2779 24.9544 8.16075C25.0716 8.0436 25.2305 7.97778 25.3962 7.97778H39.3945C40.1168 7.97861 40.8092 8.26589 41.3199 8.7766C41.8306 9.28731 42.1179 9.97974 42.1187 10.702V19.8641C42.1187 20.0298 42.0529 20.1887 41.9358 20.3058C41.8186 20.423 41.6597 20.4888 41.4941 20.4888Z" fill="#3D053E"/>
<path d="M23.348 40.722H21.5114C21.3457 40.722 21.1868 40.6562 21.0697 40.5391C20.9525 40.4219 20.8867 40.263 20.8867 40.0973C20.8867 39.9317 20.9525 39.7728 21.0697 39.6556C21.1868 39.5385 21.3457 39.4727 21.5114 39.4727H23.348C23.5136 39.4727 23.6725 39.5385 23.7897 39.6556C23.9068 39.7728 23.9726 39.9317 23.9726 40.0973C23.9726 40.263 23.9068 40.4219 23.7897 40.5391C23.6725 40.6562 23.5136 40.722 23.348 40.722Z" fill="#3D053E"/>
<path d="M10.9294 40.7219H6.49423C4.84467 40.7201 3.2632 40.064 2.09678 38.8976C0.93037 37.7312 0.27428 36.1497 0.272461 34.5001V4.75309C0.272461 4.58742 0.338275 4.42853 0.455424 4.31138C0.572574 4.19423 0.731462 4.12842 0.897137 4.12842C1.06281 4.12842 1.2217 4.19423 1.33885 4.31138C1.456 4.42853 1.52181 4.58742 1.52181 4.75309V34.5001C1.5233 35.8185 2.04766 37.0823 2.97984 38.0145C3.91203 38.9467 5.17592 39.4711 6.49423 39.4726H10.9294C11.0951 39.4726 11.254 39.5384 11.3711 39.6555C11.4883 39.7727 11.5541 39.9316 11.5541 40.0972C11.5541 40.2629 11.4883 40.4218 11.3711 40.539C11.254 40.6561 11.0951 40.7219 10.9294 40.7219Z" fill="#3D053E"/>
<path d="M17.1386 40.722H15.3083C15.1426 40.722 14.9837 40.6562 14.8666 40.5391C14.7494 40.4219 14.6836 40.263 14.6836 40.0973C14.6836 39.9317 14.7494 39.7728 14.8666 39.6556C14.9837 39.5385 15.1426 39.4727 15.3083 39.4727H17.1386C17.3042 39.4727 17.4631 39.5385 17.5803 39.6556C17.6974 39.7728 17.7632 39.9317 17.7632 40.0973C17.7632 40.263 17.6974 40.4219 17.5803 40.5391C17.4631 40.6562 17.3042 40.722 17.1386 40.722Z" fill="#3D053E"/>
<path d="M39.3956 40.722H27.7204C27.5547 40.722 27.3958 40.6562 27.2787 40.539C27.1615 40.4219 27.0957 40.263 27.0957 40.0973C27.0957 39.9317 27.1615 39.7728 27.2787 39.6556C27.3958 39.5385 27.5547 39.4727 27.7204 39.4727H39.3956C39.7865 39.4723 40.1613 39.3169 40.4377 39.0405C40.7141 38.7641 40.8695 38.3893 40.8698 37.9984V28.6658C40.869 28.5001 40.934 28.3409 41.0506 28.2231C41.1671 28.1054 41.3257 28.0388 41.4914 28.038C41.6571 28.0371 41.8163 28.1022 41.934 28.2187C42.0517 28.3353 42.1183 28.4939 42.1192 28.6595V37.9984C42.1183 38.7205 41.8311 39.4128 41.3205 39.9234C40.8099 40.434 40.1177 40.7212 39.3956 40.722Z" fill="#3D053E"/>
<path d="M25.3957 9.22706H4.74701C3.56029 9.22706 2.42217 8.75563 1.58303 7.91649C0.743886 7.07735 0.272461 5.93923 0.272461 4.75251C0.272461 3.56578 0.743886 2.42766 1.58303 1.58852C2.42217 0.749379 3.56029 0.277954 4.74701 0.277954H25.3957C25.5613 0.277954 25.7202 0.343768 25.8374 0.460917C25.9545 0.578067 26.0203 0.736955 26.0203 0.90263V8.60238C26.0203 8.76806 25.9545 8.92695 25.8374 9.0441C25.7202 9.16124 25.5613 9.22706 25.3957 9.22706ZM4.74701 1.52731C3.89164 1.52731 3.07129 1.8671 2.46645 2.47194C1.86161 3.07679 1.52181 3.89713 1.52181 4.75251C1.52181 5.60788 1.86161 6.42823 2.46645 7.03307C3.07129 7.63791 3.89164 7.97771 4.74701 7.97771H24.771V1.52731H4.74701Z" fill="#3D053E"/>
<path d="M42.6416 29.2873H33.9936C32.6709 29.2725 31.4074 28.7367 30.4772 27.7962C29.5471 26.8556 29.0254 25.5862 29.0254 24.2633C29.0254 22.9405 29.5471 21.6711 30.4772 20.7305C31.4074 19.7899 32.6709 19.2541 33.9936 19.2394H42.6416C43.0017 19.2399 43.3468 19.3831 43.6014 19.6377C43.856 19.8923 43.9992 20.2374 43.9997 20.5974V27.9299C43.999 28.2898 43.8557 28.6348 43.6012 28.8892C43.3466 29.1436 43.0016 29.2868 42.6416 29.2873ZM33.9936 20.4887C33.001 20.5015 32.0533 20.9048 31.3558 21.6113C30.6584 22.3178 30.2673 23.2706 30.2673 24.2633C30.2673 25.2561 30.6584 26.2089 31.3558 26.9154C32.0533 27.6219 33.001 28.0252 33.9936 28.0379H42.6416C42.6704 28.0379 42.6979 28.0266 42.7183 28.0063C42.7387 27.9861 42.7502 27.9586 42.7503 27.9299V20.5974C42.7503 20.5832 42.7475 20.569 42.7421 20.5558C42.7366 20.5426 42.7286 20.5307 42.7185 20.5206C42.7084 20.5105 42.6964 20.5025 42.6832 20.497C42.6701 20.4915 42.6559 20.4887 42.6416 20.4887H33.9936Z" fill="#3D053E"/>
<path d="M34.4947 26.5943C34.0338 26.5943 33.5832 26.4576 33.1999 26.2015C32.8167 25.9455 32.518 25.5815 32.3415 25.1557C32.1651 24.7298 32.1189 24.2613 32.2088 23.8092C32.2987 23.3571 32.5206 22.9418 32.8465 22.6158C33.1724 22.2899 33.5876 22.0678 34.0397 21.9778C34.4917 21.8878 34.9603 21.9339 35.3862 22.1102C35.8121 22.2865 36.1761 22.5852 36.4323 22.9683C36.6885 23.3515 36.8253 23.8021 36.8254 24.263C36.8247 24.881 36.579 25.4735 36.1421 25.9105C35.7051 26.3476 35.1127 26.5935 34.4947 26.5943ZM34.4947 23.1823C34.2808 23.1823 34.0718 23.2458 33.8939 23.3646C33.7161 23.4835 33.5775 23.6524 33.4957 23.85C33.4138 24.0476 33.3925 24.265 33.4342 24.4748C33.476 24.6846 33.5791 24.8773 33.7303 25.0285C33.8816 25.1797 34.0744 25.2826 34.2842 25.3242C34.494 25.3659 34.7114 25.3444 34.909 25.2625C35.1065 25.1805 35.2754 25.0418 35.3941 24.8639C35.5129 24.686 35.5762 24.4769 35.576 24.263C35.5757 23.9764 35.4617 23.7016 35.2589 23.499C35.0562 23.2964 34.7814 23.1825 34.4947 23.1823Z" fill="#3D053E"/>
</svg>
