<svg width="346" height="438" viewBox="0 0 346 438" fill="none" xmlns="http://www.w3.org/2000/svg">
<path d="M31.5502 437.026L-124.167 266.963L-39.4337 38.2825L-38.2067 38.7371L193.418 0.171368L345.795 182.071L345.45 183.003L259.874 409.251L258.724 409.532L31.5502 437.026ZM-119.987 266.038L31.7433 431.797L79.7124 303.278L17.6859 237.187L18.0313 236.254L53.1827 143.27L-37.6713 43.8826L-119.987 266.038ZM82.895 304.104L34.9259 432.623L257.114 405.402L340.848 184.125L206.86 200.208L172.897 294.693L82.895 304.104ZM21.8659 236.262L81.2091 299.239L114.672 209.869L55.9812 146.073L21.8659 236.262ZM117.74 211.005L84.3916 300.064L170.022 291.154L202.604 200.397L117.74 211.005ZM58.8578 143.959L116.935 207.527L201.991 197.343L144.144 133.154L58.8578 143.959ZM145.219 129.312L146.139 129.653L206.785 196.646L340.044 180.647L191.73 3.78621L-35.1014 41.6544L55.5609 140.617L145.219 129.312Z" fill="white" fill-opacity="0.1"/>
</svg>
