<svg width="46" height="38" viewBox="0 0 46 38" fill="none" xmlns="http://www.w3.org/2000/svg">
<path d="M35.561 24.7169C35.3929 24.8913 35.1616 24.9896 34.9202 24.9896C34.9122 24.9896 34.9048 24.9896 34.8971 24.9893C34.6472 24.9827 34.4121 24.8718 34.2484 24.6831L39.5402 20.5813L35.561 24.7169ZM35.561 24.7169L35.4889 24.6475M35.561 24.7169L35.489 24.6475M35.4889 24.6475C35.3396 24.8024 35.1344 24.8896 34.9202 24.8896C34.9119 24.8896 34.9063 24.8896 34.9007 24.8894L34.8997 24.8894C34.6778 24.8835 34.4692 24.785 34.3239 24.6176L30.7668 20.5158L30.7369 20.4813H30.6913H27.4542H27.3542V20.5813V22.6638C27.3542 24.4389 25.9098 25.883 24.1344 25.883H17.5514H17.4514V25.983V29.8005C17.4514 30.7055 18.1872 31.4416 19.0922 31.4416H22.4233C22.6378 31.4416 22.8433 31.5289 22.9919 31.6836L22.992 31.6837L26.559 35.3905L26.6349 35.4693L26.7066 35.3866L29.892 31.7134C30.042 31.5408 30.2594 31.4413 30.4883 31.4413H39.0854C39.9904 31.4413 40.7262 30.7055 40.7262 29.8005V20.5813V20.4813H40.6262H39.5402H39.4976L39.4681 20.512L35.489 24.6475M35.4889 24.6475L35.489 24.6475M35.4889 24.6475L35.489 24.6475M34.9504 22.9309L34.8787 22.8482L31.6935 19.175C31.6935 19.175 31.6935 19.175 31.6935 19.175C31.5436 19.0022 31.3259 18.9029 31.0969 18.9029H27.4542H27.3542V18.8029V9.08912C27.3542 7.31405 25.9098 5.86989 24.1344 5.86989H20.9591H20.8591V5.76989V3.68743C20.8591 2.78272 21.5948 2.04633 22.4999 2.04633H42.4933C43.3981 2.04633 44.1341 2.78271 44.1341 3.68743V17.2621C44.1341 18.1671 43.398 18.9029 42.4933 18.9029H39.162C38.9475 18.9029 38.742 18.9904 38.5933 19.1447C38.5933 19.1448 38.5932 19.1448 38.5932 19.1448M34.9504 22.9309L38.5932 19.1448M34.9504 22.9309L35.0263 22.8521L38.5932 19.1448M34.9504 22.9309L38.5932 19.1448M19.1807 5.86989H19.2807V5.76989V3.68716C19.2807 1.91207 20.7248 0.46792 22.4999 0.46792H42.4933C44.2681 0.46792 45.7126 1.91261 45.7126 3.68743V17.2621C45.7126 19.0372 44.2681 20.4813 42.4933 20.4813H42.4046H42.3046V20.5813V29.8005C42.3046 31.5756 40.8605 33.0197 39.0854 33.0197H30.8945H30.8489L30.819 33.0542L27.2614 37.1559C27.1163 37.3231 26.9081 37.4218 26.6868 37.428H26.6651C26.4508 37.428 26.2455 37.341 26.0966 37.1862L22.1171 33.0504L22.0876 33.0197H22.0451H19.0922C17.3171 33.0197 15.873 31.5756 15.873 29.8005V26.18V25.912L15.6974 26.1144L12.3109 30.0193C12.1659 30.1864 11.9567 30.2852 11.7348 30.291L11.7337 30.2911C11.7311 30.2912 11.7284 30.2912 11.7253 30.2913C11.7221 30.2913 11.7186 30.2913 11.7144 30.2913C11.5003 30.2913 11.2948 30.2043 11.1459 30.0495L7.16641 25.9137L7.1369 25.883H7.09435H4.1415C2.36641 25.883 0.922266 24.4389 0.922266 22.6638V17.6884C0.922266 17.2528 1.27573 16.8993 1.71161 16.8993C2.14719 16.8993 2.50067 17.2528 2.50067 17.6884V22.6638C2.50067 23.5685 3.23647 24.3046 4.1415 24.3046H7.47282C7.68728 24.3046 7.89254 24.3921 8.04126 24.5467L8.11333 24.4774L8.04127 24.5467L11.6085 28.2535L11.6844 28.3323L11.7561 28.2497L14.9413 24.5769C15.0913 24.4041 15.309 24.3046 15.5376 24.3046H24.1349C25.0397 24.3046 25.7758 23.5685 25.7758 22.6638V9.08912C25.7758 8.18409 25.0397 7.44829 24.1349 7.44829H4.1415C3.23648 7.44829 2.50067 8.1841 2.50067 9.08912V10.6637C2.50067 11.0999 2.14719 11.4531 1.71161 11.4531C1.27573 11.4531 0.922266 11.0998 0.922266 10.6637V9.08912C0.922266 7.31403 2.36641 5.86989 4.1415 5.86989H19.1807Z" fill="#3D053E" stroke="#F4F5F7" stroke-width="0.2"/>
<path d="M1.44496 15.0275L1.46364 15.0333C1.54961 15.0591 1.63612 15.0715 1.72127 15.0715C2.10304 15.0715 2.45598 14.8235 2.57188 14.439C2.71388 13.9687 2.44774 13.4727 1.9778 13.3307L1.95885 13.3249C1.48836 13.1832 0.992601 13.4494 0.850603 13.9193C0.70888 14.3895 0.974748 14.8856 1.44496 15.0275Z" fill="#3D053E"/>
<path d="M30.0125 11.8965L30.0315 11.9022C30.1169 11.9278 30.2032 11.9401 30.2878 11.9401C30.6701 11.9401 31.0233 11.6916 31.1389 11.3065C31.2801 10.8363 31.0137 10.3405 30.5432 10.1991L30.5245 10.1933C30.0537 10.0521 29.558 10.3188 29.4168 10.7893C29.2754 11.2593 29.5421 11.7553 30.0125 11.8965Z" fill="#3D053E"/>
<path d="M40.4733 6.21814H30.2777C29.7869 6.21814 29.3887 6.6164 29.3887 7.10749C29.3887 7.5983 29.7869 7.99656 30.2777 7.99656H40.4733C40.9646 7.99656 41.3626 7.5983 41.3626 7.10749C41.3626 6.6164 40.9646 6.21814 40.4733 6.21814Z" fill="#3D053E"/>
<path d="M40.473 10.0696H33.8637C33.3729 10.0696 32.9746 10.4678 32.9746 10.9586C32.9746 11.4497 33.3729 11.848 33.8637 11.848H40.473C40.9644 11.848 41.3624 11.4497 41.3624 10.9586C41.3624 10.4678 40.9644 10.0696 40.473 10.0696Z" fill="#3D053E"/>
<path d="M40.4733 13.9209H30.2777C29.7869 13.9209 29.3887 14.3192 29.3887 14.81C29.3887 15.3013 29.7869 15.6993 30.2777 15.6993H40.4733C40.9646 15.6993 41.3626 15.3013 41.3626 14.81C41.3626 14.3192 40.9646 13.9209 40.4733 13.9209Z" fill="#3D053E"/>
</svg>
