<svg width="50" height="51" viewBox="0 0 50 51" fill="none" xmlns="http://www.w3.org/2000/svg">
<path d="M49.1385 36.5034C48.1871 35.1053 46.5734 34.7639 44.8202 35.5889L43.8911 35.998C45.3561 32.8752 45.5379 29.3942 44.8086 26.1061C43.971 22.3296 41.9478 18.6711 38.7954 15.2323C38.5166 14.9282 38.0442 14.9077 37.74 15.1865C37.4359 15.4652 37.4154 15.9376 37.6942 16.2418C40.6671 19.4847 42.5701 22.9124 43.3502 26.4295C44.1719 30.1343 43.6939 33.9549 41.597 37.008L32.2992 41.1019L32.3069 40.0518C32.3071 40.0253 32.3059 39.9988 32.3032 39.9724C32.0885 37.8142 30.4388 36.0946 28.2913 35.7908C28.285 35.7898 28.2786 35.789 28.2721 35.7883L20.0084 34.8369C16.8307 34.3845 16.0124 32.4803 11.7088 31.3944C11.4115 28.8713 11.8078 26.185 12.8942 23.4918C14.5303 19.4359 17.731 15.4954 22.1682 12.0655C23.822 13.2381 31.2004 13.384 32.8516 11.8714C33.6974 12.5138 34.5048 13.1758 35.2568 13.8458C35.3992 13.9727 35.5767 14.0351 35.7535 14.0351C35.9591 14.0351 36.1639 13.9507 36.3114 13.7851C36.5858 13.4771 36.5585 13.0049 36.2505 12.7305C35.4262 11.9961 34.5394 11.2714 33.6094 10.5711C33.8273 9.64689 33.5223 8.56523 32.7175 7.92136C35.0562 4.37406 35.7364 2.05226 34.7968 0.835831C34.1515 0.000206329 33.3486 0.392369 33.0057 0.559912C32.4246 0.8436 32.1078 0.858542 31.5731 0.508713C30.553 -0.158771 29.4808 -0.180286 28.4278 0.508713C27.8863 0.863024 27.4599 0.863024 26.9186 0.508713C25.8984 -0.158771 24.8266 -0.180286 23.7734 0.508713C23.2326 0.862725 22.9145 0.840811 22.3425 0.556526C22.0001 0.386293 21.1981 -0.0123445 20.5487 0.82338C19.6302 2.00555 20.2447 4.25413 22.4256 7.6808C22.292 7.75302 22.1647 7.83778 22.0459 7.9346C21.1785 7.0186 19.7574 6.06324 17.7022 6.29274C15.9976 6.48349 14.7406 5.9202 13.9862 5.41419C13.6435 5.18468 13.1796 5.27613 12.9499 5.61858C12.7202 5.96124 12.8117 6.42522 13.1543 6.65492C14.116 7.29969 15.7143 8.01748 17.868 7.77732C19.4558 7.59922 20.5331 8.41064 21.2038 9.2364C21.1946 9.26828 21.1862 9.30035 21.1783 9.33243C20.6062 9.34139 19.7513 9.39478 18.8098 9.59061C16.5455 10.0617 14.8647 11.1377 13.9489 12.7028C13.7407 13.0588 13.8604 13.5164 14.2164 13.7248C14.5725 13.9331 15.03 13.8133 15.2383 13.4573C16.6003 11.1295 19.925 10.8448 21.2455 10.827C21.2512 10.8434 21.2579 10.8596 21.2639 10.876C16.5515 14.511 13.2708 18.5648 11.5089 22.9327C10.3953 25.6936 9.95042 28.4596 10.1762 31.0881C9.45994 30.9822 8.73538 30.9253 8.00733 30.9203V30.4686C8.00733 29.2734 7.03494 28.3011 5.83973 28.3011H2.41077C1.21555 28.3011 0.243164 29.2735 0.243164 30.4686V47.8648C0.243164 49.0601 1.21555 50.0324 2.41077 50.0324H5.83963C7.03484 50.0324 8.00723 49.06 8.00723 47.8648V47.652L15.487 50.436C16.4922 50.81 17.5456 50.9998 18.6181 50.9998H29.7631C31.467 50.9998 33.1284 50.5177 34.5675 49.6058C49.4352 40.1807 48.5323 40.7671 48.6182 40.691C49.8158 39.628 50.0395 37.8276 49.1385 36.5034ZM31.4498 10.9862C28.7184 11.6759 26.0626 11.6759 23.3305 10.9862C22.1582 10.6899 22.4978 8.5991 23.7577 8.91506C26.2019 9.52866 28.5782 9.52866 31.0226 8.91506C32.2606 8.60428 32.641 10.6852 31.4498 10.9862ZM21.6603 1.88582C21.6662 1.8887 21.6721 1.89169 21.6776 1.89448C22.6886 2.39691 23.5744 2.4242 24.5913 1.75891C25.8639 0.925878 26.0021 2.26154 27.673 2.26154C28.4775 2.26154 28.9215 1.97108 29.2456 1.75891C29.7872 1.4045 30.2137 1.4047 30.7552 1.75891C31.7766 2.42729 32.641 2.39432 33.6813 1.89259C33.835 2.44662 33.4872 4.09824 31.2722 7.39592C30.1724 7.37719 28.5762 8.45746 24.0577 7.4519C21.8476 4.11159 21.5058 2.44393 21.6603 1.88582ZM47.6669 39.5372L33.768 48.3444C32.5684 49.1045 31.1835 49.5065 29.7632 49.5065H18.6182C17.7242 49.5065 16.8461 49.3483 16.0082 49.0364L8.00723 46.0584V38.0144C8.00723 37.6018 7.67284 37.2674 7.26036 37.2674C6.84788 37.2674 6.51349 37.6018 6.51349 38.0144V47.8652C6.51349 48.2367 6.21117 48.5389 5.83973 48.5389H2.41077C2.03922 48.5389 1.73701 48.2366 1.73701 47.8652V30.469C1.73701 30.0974 2.03922 29.7953 2.41077 29.7953H5.83963C6.21117 29.7953 6.51339 30.0975 6.51339 30.469V34.5225C6.51339 34.9351 6.84778 35.2695 7.26026 35.2695C7.67274 35.2695 8.00713 34.9351 8.00713 34.5225V32.4146C14.186 32.4619 15.5753 35.7186 19.8085 36.3174C19.8148 36.3183 19.8212 36.3191 19.8276 36.3198L28.0909 37.2712C29.5378 37.4801 30.6514 38.6323 30.8125 40.0829L30.8022 41.5037H23.0959C22.6834 41.5037 22.3489 41.8381 22.3489 42.2507C22.3489 42.6633 22.6833 42.9977 23.0959 42.9977H31.5437C31.638 42.9977 31.747 42.9767 31.8418 42.9354C31.857 42.9286 45.4149 36.9593 45.4307 36.9524C46.408 36.5181 47.299 36.456 47.9033 37.3439C48.373 38.0339 48.269 38.9668 47.6669 39.5372Z" fill="#3D053E"/>
<path d="M27.5873 33.8893C27.9998 33.8893 28.3343 33.5549 28.3343 33.1423V31.9041C30.4312 31.5639 31.6547 29.8666 31.9208 28.2832C32.2533 26.3053 31.2173 24.5851 29.2815 23.9009C28.9394 23.78 28.6246 23.6643 28.3342 23.5527V18.7902C29.2178 18.9367 29.7483 19.394 29.787 19.4282C30.0904 19.7041 30.5599 19.6836 30.8384 19.3818C31.1181 19.0786 31.0989 18.6061 30.7957 18.3264C30.743 18.2778 29.8282 17.4541 28.3342 17.2819V16.2196C28.3342 15.807 27.9998 15.4727 27.5872 15.4727C27.1747 15.4727 26.8403 15.807 26.8403 16.2196V17.3422C26.6602 17.3767 26.4758 17.4205 26.2862 17.4776C25.0192 17.8592 24.0721 18.9456 23.8144 20.3128C23.5806 21.5534 23.974 22.7465 24.8409 23.4265C25.3386 23.8168 25.9652 24.1742 26.8403 24.5563V30.4633C25.9765 30.4267 25.4448 30.2646 24.5172 29.6578C24.1721 29.432 23.7091 29.5286 23.4833 29.8739C23.2575 30.2191 23.3542 30.682 23.6994 30.9079C24.9188 31.7055 25.7339 31.9136 26.8403 31.9566V33.1423C26.8403 33.5549 27.1747 33.8893 27.5873 33.8893ZM25.7629 22.2511C25.3364 21.9166 25.1522 21.2799 25.2824 20.5895C25.4032 19.9492 25.8433 19.1713 26.7171 18.9081C26.7586 18.8955 26.7995 18.8848 26.8403 18.8738V22.9085C26.3931 22.6852 26.0424 22.4703 25.7629 22.2511ZM28.7836 25.3094C30.6423 25.9663 30.5272 27.5623 30.4476 28.0357C30.2828 29.016 29.5633 30.0625 28.3342 30.3774V25.1475C28.4796 25.2007 28.6281 25.2544 28.7836 25.3094Z" fill="#3D053E"/>
</svg>
