<svg width="104" height="182" viewBox="0 0 104 182" fill="none" xmlns="http://www.w3.org/2000/svg">
<g clip-path="url(#clip0)">
<path d="M51.7677 95.2606L14.3047 76.3196V32.5563H14.5371L51.7212 11.5776L89.3236 32.6952V32.8804L89.0448 76.3196L88.8588 76.4122L51.7677 95.2606ZM14.9554 75.9491L51.4423 94.3807L51.4888 69.6972L36.7081 62.5191L36.8476 44.458L14.9554 33.4362V75.9491ZM52.1395 69.6972L52.093 94.3344L88.4405 75.9028L88.7194 33.4362L66.8273 44.5044L66.9667 62.5654L66.7808 62.658L52.1395 69.6972ZM37.3588 62.1023L51.4888 69.0026L51.5353 51.8677L37.4983 44.7822L37.3588 62.1023ZM52.186 51.8677L52.1395 68.9563L66.2695 62.1486L66.1301 44.8285L52.186 51.8677ZM37.8701 44.2265L51.8606 51.2657L65.7582 44.2265L51.8142 37.0484L37.8701 44.2265ZM51.7212 36.3537H51.9071L66.5019 43.9023L88.3476 32.8804L51.7677 12.3186L15.3273 32.8804L37.1729 43.9023L51.7212 36.3537Z" fill="white"/>
<path d="M103.5 165.189H0.5V167.181H103.5V165.189Z" fill="white"/>
<path d="M15.4207 174.776V181.907H14.7235V174.776H12.8643V174.127H17.2334V174.776H15.4207ZM20.5335 181.861V174.127H24.5773V174.776H21.2772V177.601H24.1124V178.249H21.2772V181.167H24.5773V181.861H20.5335ZM31.3634 181.861L29.783 178.573L28.2027 181.861H27.4125L29.4112 177.878L27.552 174.127H28.3421L29.8295 177.23L31.2704 174.127H32.0606L30.2013 177.878L32.2 181.861H31.3634ZM39.1255 181.861V178.249H36.1508V181.861H35.4536V174.127H36.1508V177.601H39.1255V174.127H39.8692V181.861H39.1255ZM48.0497 179.638C48.0497 179.962 48.0032 180.287 47.8638 180.564C47.6779 181.12 47.2596 181.537 46.7018 181.769C46.4229 181.907 46.0976 181.954 45.7722 181.954C45.4468 181.954 45.075 181.907 44.7496 181.769C44.4707 181.676 44.2383 181.491 44.0524 181.259C43.8665 181.028 43.7271 180.796 43.6341 180.518C43.5411 180.24 43.4947 179.916 43.4947 179.592V176.35C43.4947 176.072 43.5411 175.794 43.6341 175.517C43.7271 175.239 43.8665 175.007 44.0524 174.822C44.2383 174.59 44.4707 174.451 44.7496 174.313C45.075 174.174 45.4004 174.127 45.7722 174.127C46.0976 174.127 46.4229 174.174 46.7483 174.313C47.0272 174.405 47.2596 174.59 47.4455 174.822C47.6314 175.007 47.7708 175.285 47.8638 175.517C47.9568 175.794 48.0032 176.072 48.0032 176.35L48.0497 179.638ZM47.306 176.304C47.306 176.119 47.2596 175.933 47.2131 175.794C47.1666 175.609 47.0736 175.424 46.9342 175.285C46.7948 175.146 46.6553 175.007 46.4694 174.915C46.237 174.822 46.0046 174.776 45.7722 174.776C45.5398 174.776 45.3074 174.822 45.075 174.915C44.8891 175.007 44.7496 175.146 44.6102 175.285C44.4707 175.424 44.3778 175.609 44.3313 175.794C44.2848 175.98 44.2383 176.165 44.2383 176.35V179.592C44.2383 179.823 44.2848 180.055 44.3313 180.287C44.3778 180.472 44.4707 180.657 44.6102 180.842C44.7496 180.981 44.8891 181.12 45.075 181.213C45.3074 181.305 45.5398 181.352 45.7722 181.352C45.9581 181.352 46.1905 181.305 46.3764 181.213C46.5624 181.12 46.7018 181.028 46.8412 180.889C46.9807 180.75 47.0736 180.564 47.1666 180.379C47.2596 180.194 47.2596 179.962 47.2596 179.777L47.306 176.304ZM55.5795 174.776H53.0231V178.249C53.0231 178.805 52.9766 179.36 52.9301 179.87C52.8837 180.24 52.7907 180.611 52.6048 180.935C52.4653 181.213 52.3259 181.444 52.0935 181.583C51.8611 181.769 51.6287 181.907 51.3498 182L51.2104 181.722C51.1639 181.63 51.1174 181.537 51.0709 181.444C51.2568 181.352 51.4428 181.213 51.6287 181.074C51.8146 180.935 51.954 180.75 52.047 180.564C52.1865 180.287 52.2329 180.009 52.2794 179.731C52.3259 179.268 52.3724 178.805 52.3724 178.342V174.081H56.3232V181.861H55.626L55.5795 174.776ZM64.5037 179.638C64.5037 179.962 64.4572 180.287 64.3178 180.564C64.1318 181.12 63.7135 181.537 63.1558 181.769C62.8769 181.907 62.5515 181.954 62.2262 181.954C61.9008 181.954 61.529 181.907 61.2036 181.769C60.9247 181.676 60.6923 181.491 60.5064 181.259C60.3205 181.028 60.181 180.796 60.0881 180.518C59.9951 180.24 59.9486 179.916 59.9486 179.592V176.35C59.9486 176.072 59.9951 175.794 60.0881 175.517C60.181 175.239 60.3205 175.007 60.5064 174.822C60.6923 174.59 60.9247 174.451 61.2036 174.313C61.529 174.174 61.8543 174.127 62.2262 174.127C62.5515 174.127 62.8769 174.174 63.2022 174.313C63.4811 174.405 63.7135 174.59 63.8994 174.822C64.0854 175.007 64.2248 175.285 64.3178 175.517C64.4107 175.794 64.4572 176.072 64.4572 176.35L64.5037 179.638ZM63.76 176.304C63.76 176.119 63.7135 175.933 63.667 175.794C63.6206 175.609 63.5276 175.424 63.3882 175.285C63.2487 175.146 63.1093 175.007 62.9234 174.915C62.691 174.822 62.4586 174.776 62.2262 174.776C61.9938 174.776 61.7614 174.822 61.529 174.915C61.343 175.007 61.2036 175.146 61.0642 175.285C60.9247 175.424 60.8318 175.609 60.7853 175.794C60.7388 175.98 60.6923 176.165 60.6923 176.35V179.592C60.6923 179.823 60.7388 180.055 60.7853 180.287C60.8318 180.472 60.9247 180.657 61.0642 180.842C61.2036 180.981 61.343 181.12 61.529 181.213C61.7614 181.305 61.9938 181.352 62.2262 181.352C62.4121 181.352 62.6445 181.305 62.8304 181.213C63.0163 181.12 63.1558 181.028 63.2952 180.889C63.4346 180.75 63.5276 180.564 63.6206 180.379C63.7135 180.194 63.7135 179.962 63.7135 179.777L63.76 176.304ZM68.9658 174.776V181.861H68.2221V174.127H72.1729V174.776H68.9658ZM75.566 181.861V174.127H76.2632V180.472H76.3096L79.6097 174.081H80.3069V181.861H79.6097V175.47H79.5632L76.2632 181.861H75.566ZM85.6986 172.275C85.7451 172.46 85.8381 172.645 85.9775 172.784C86.1169 172.923 86.3493 173.016 86.5817 173.016C86.8141 173.016 87.0465 172.923 87.186 172.784C87.3254 172.645 87.4184 172.46 87.4184 172.275H88.0226C88.0226 172.414 87.9762 172.599 87.9297 172.738C87.8832 172.877 87.7902 173.016 87.6973 173.155C87.5578 173.294 87.4184 173.386 87.2789 173.479C87.093 173.572 86.8606 173.618 86.6282 173.618C86.3958 173.618 86.1634 173.572 85.9775 173.479C85.7916 173.386 85.6521 173.294 85.5127 173.155C85.4197 173.016 85.3268 172.877 85.2803 172.738C85.2338 172.599 85.1873 172.414 85.1873 172.275H85.6986ZM84.1648 181.861V174.127H84.862V180.472H84.9085L88.2085 174.081H88.9057V181.861H88.2085V175.47H88.1621L84.862 181.861H84.1648Z" fill="white"/>
<path d="M51.9999 106.838L51.5351 106.607L4.17188 82.6641V26.9527L51.9999 0L100.014 26.9527L99.6421 82.6641L51.9999 106.838ZM6.17052 81.46L51.9999 104.615L97.6899 81.4137L98.0153 28.0641L51.9999 2.2229L6.17052 28.1104V81.46Z" fill="white"/>
<path d="M5.42676 156.853V121.426H12.5847V134.254C13.9791 133.605 15.327 132.818 16.582 131.892C17.837 130.966 18.999 129.947 20.1145 128.882C21.23 127.77 22.2526 126.566 23.1822 125.316C24.1583 124.065 25.0414 122.769 25.878 121.426H35.0346C33.8726 123.047 32.6641 124.668 31.4556 126.242C30.2472 127.817 28.9457 129.299 27.5978 130.734C26.2963 132.123 24.8555 133.466 23.3681 134.717C21.8807 135.921 20.3004 137.032 18.6271 137.959C19.9286 138.514 21.1835 139.209 22.2991 140.043C23.5075 140.922 24.6231 141.849 25.6921 142.867C26.7611 143.933 27.7837 145.044 28.7598 146.202C29.7359 147.406 30.6655 148.61 31.5486 149.814C32.4317 151.018 33.2684 152.269 34.0121 153.473C34.8022 154.677 35.5459 155.834 36.2431 156.946H27.9696C26.2034 154.26 24.5766 151.991 23.1357 150.138C21.8807 148.517 20.5328 146.989 19.0919 145.6C18.0694 144.581 16.9074 143.655 15.6524 142.914C14.6763 142.358 13.6537 141.941 12.5847 141.71V156.946H5.42676V156.853Z" fill="white"/>
<path d="M69.5691 121.426C68.6395 124.204 67.7099 126.89 66.7803 129.484C65.8506 132.077 64.8281 134.671 63.759 137.125C62.69 139.579 61.5745 141.988 60.366 144.303C59.1575 146.619 57.9025 148.842 56.5546 150.972C55.8574 152.083 55.0672 153.102 54.2306 154.121C53.5799 154.908 52.7897 155.557 51.9531 156.112C51.1629 156.575 50.2798 156.946 49.3967 157.131C48.3741 157.363 47.3051 157.455 46.236 157.409C45.3994 157.409 44.5163 157.316 43.6796 157.131C42.6106 156.9 41.588 156.529 40.6119 155.973L41.495 149.814C42.2387 150.231 42.843 150.601 43.3078 150.833C43.7261 151.018 44.1444 151.203 44.5627 151.389C44.8416 151.481 45.074 151.574 45.3529 151.62C45.5388 151.62 45.7247 151.666 45.9107 151.666C46.2825 151.666 46.6543 151.62 47.0262 151.528C47.4445 151.435 47.8163 151.203 48.1417 150.926C48.6065 150.509 49.0248 150.092 49.3967 149.583C49.9544 148.795 50.4657 148.008 50.884 147.174C47.8628 143.331 45.167 139.255 42.7965 134.995C40.3795 130.595 38.2414 126.103 36.4287 121.426H44.3768C45.6783 124.992 47.2586 128.465 49.0248 131.846C50.6516 134.948 52.4644 137.912 54.556 140.737C55.2532 139.163 55.9039 137.681 56.5081 136.245C57.1124 134.809 57.6701 133.42 58.2279 132.077C58.9251 130.41 59.5293 128.697 60.1336 126.937C60.7378 125.177 61.2956 123.325 61.8534 121.426H69.5691Z" fill="white"/>
<path d="M80.2601 127.076V151.203H86.9532C87.7434 151.203 88.4871 151.111 89.2307 150.926C89.8815 150.787 90.5322 150.463 91.0435 150.046C91.5548 149.629 91.9731 149.073 92.2519 148.425C92.5773 147.638 92.7168 146.804 92.6703 145.97C92.7168 145.183 92.5773 144.396 92.2519 143.609C92.0195 143.053 91.6477 142.543 91.1364 142.173C90.6251 141.802 90.0209 141.571 89.4167 141.432C88.673 141.293 87.9293 141.2 87.1856 141.247H82.3517V135.597H87.1391C88.8589 135.597 90.5787 135.782 92.2519 136.199C93.7393 136.569 95.0872 137.218 96.3422 138.098C97.4577 138.931 98.3873 140.043 99.038 141.293C99.7353 142.682 100.061 144.257 100.014 145.785C100.061 147.36 99.6888 148.934 99.038 150.416C98.3873 151.759 97.5042 152.963 96.3422 153.889C95.1337 154.908 93.6928 155.649 92.2055 156.112C90.4857 156.622 88.7195 156.9 86.9067 156.9H73.0557V121.472H97.2253V127.122L80.2601 127.076Z" fill="white"/>
</g>
<defs>
<clipPath id="clip0">
<rect width="103" height="182" fill="white" transform="translate(0.5)"/>
</clipPath>
</defs>
</svg>
