<?xml version="1.0" standalone="no"?>
<!DOCTYPE svg PUBLIC "-//W3C//DTD SVG 20010904//EN"
 "http://www.w3.org/TR/2001/REC-SVG-20010904/DTD/svg10.dtd">
<svg version="1.0" xmlns="http://www.w3.org/2000/svg"
 width="2440.000000pt" height="217.000000pt" viewBox="0 0 2440.000000 217.000000"
 preserveAspectRatio="xMidYMid meet">

<g transform="translate(0.000000,217.000000) scale(0.100000,-0.100000)"
fill="#000000" stroke="none">
<path d="M0 1090 l0 -1080 300 0 300 0 0 1080 0 1080 -300 0 -300 0 0 -1080z"/>
<path d="M780 1090 l0 -1080 300 0 300 0 0 1080 0 1080 -300 0 -300 0 0 -1080z"/>
<path d="M1560 1090 l0 -1080 300 0 300 0 0 1080 0 1080 -300 0 -300 0 0
-1080z"/>
<path d="M2340 1870 l0 -300 1080 0 1080 0 0 300 0 300 -1080 0 -1080 0 0
-300z"/>
<path d="M11527 2156 c-229 -41 -418 -138 -577 -296 -68 -68 -160 -188 -160
-208 0 -6 80 -65 177 -133 l176 -123 16 25 c99 150 252 261 409 294 88 19 223
19 297 0 168 -43 325 -167 398 -314 20 -40 37 -80 37 -87 0 -12 -73 -14 -430
-14 l-430 0 0 -220 0 -220 430 0 c307 0 430 -3 430 -11 0 -6 -16 -42 -36 -80
-68 -129 -199 -237 -348 -286 -69 -23 -98 -27 -201 -27 -83 0 -140 5 -184 17
-143 39 -270 125 -355 241 -26 36 -50 66 -52 66 -3 0 -343 -237 -353 -246 -10
-9 79 -126 153 -203 226 -233 493 -333 853 -318 163 6 288 35 417 96 383 179
616 552 616 986 0 188 -35 336 -118 500 -137 273 -386 471 -686 546 -106 27
-365 35 -479 15z"/>
<path d="M15607 2154 c-463 -83 -814 -440 -883 -894 -92 -611 324 -1158 943
-1241 133 -18 336 -7 457 25 231 60 432 202 581 410 25 35 45 68 45 73 0 11
-344 253 -358 253 -5 0 -23 -22 -41 -49 -17 -27 -64 -79 -103 -116 -304 -281
-803 -190 -986 180 -46 93 -65 176 -65 295 -1 191 55 332 182 460 131 132 274
187 466 177 203 -10 345 -87 474 -258 l57 -75 187 129 186 129 -37 60 c-48 78
-179 218 -256 273 -178 126 -389 186 -646 184 -69 0 -160 -7 -203 -15z"/>
<path d="M5250 1915 l0 -215 308 -2 307 -3 3 -822 2 -823 235 0 235 0 0 825 0
825 310 0 310 0 -2 213 -3 212 -852 3 -853 2 0 -215z"/>
<path d="M7185 2118 c-3 -7 -4 -474 -3 -1038 l3 -1025 763 -3 762 -2 0 215 0
215 -525 0 -525 0 0 210 0 210 485 0 485 0 0 205 0 205 -485 0 -485 0 0 195 0
195 520 0 520 0 0 215 0 215 -755 0 c-595 0 -757 -3 -760 -12z"/>
<path d="M8886 2118 c4 -7 155 -239 336 -516 180 -276 328 -505 328 -507 0 -3
-155 -238 -345 -523 l-345 -517 252 -3 c139 -1 257 -1 263 2 5 2 104 155 220
340 115 185 212 336 215 336 3 0 102 -153 220 -340 l214 -340 274 0 c216 0
272 3 266 13 -4 6 -127 194 -273 417 -145 223 -297 455 -337 516 l-72 112 322
483 c177 266 331 496 340 512 l18 27 -263 0 -264 0 -205 -330 c-181 -291 -207
-328 -218 -312 -7 9 -102 158 -210 330 l-197 312 -273 0 c-216 0 -272 -3 -266
-12z"/>
<path d="M13075 2118 c-3 -7 -4 -474 -3 -1038 l3 -1025 237 -3 238 -2 2 436 3
436 345 -435 345 -436 303 -1 c179 0 302 4 300 9 -1 5 -189 237 -415 515 -227
278 -414 509 -415 514 -2 5 177 236 397 512 220 277 404 509 408 517 7 11 -41
13 -266 13 l-274 0 -364 -477 -364 -476 -3 476 -2 477 -235 0 c-179 0 -237 -3
-240 -12z"/>
<path d="M17000 1090 l0 -1040 235 0 235 0 0 825 0 825 420 0 420 0 0 -825 0
-825 235 0 235 0 0 1040 0 1040 -890 0 -890 0 0 -1040z"/>
<path d="M19100 1090 l0 -1040 760 0 760 0 0 215 0 215 -525 0 -525 0 0 210 0
210 485 0 485 0 0 205 0 205 -485 0 -485 0 0 195 0 195 520 0 520 0 0 215 0
215 -755 0 -755 0 0 -1040z"/>
<path d="M20880 1090 l0 -1040 238 2 237 3 3 288 2 287 229 0 c330 0 443 24
604 130 309 202 415 642 240 999 -54 111 -178 232 -293 289 -155 76 -150 75
-737 79 l-523 4 0 -1041z m887 600 c169 -22 260 -118 271 -286 11 -174 -84
-306 -242 -333 -34 -6 -147 -11 -249 -11 l-187 0 0 320 0 320 168 0 c92 0 200
-5 239 -10z"/>
<path d="M22700 1915 l0 -215 305 0 305 0 0 -825 0 -825 235 0 235 0 2 823 3
822 308 3 307 2 0 215 0 215 -850 0 -850 0 0 -215z"/>
<path d="M2340 1090 l0 -300 1080 0 1080 0 0 300 0 300 -1080 0 -1080 0 0
-300z"/>
<path d="M2340 310 l0 -300 1080 0 1080 0 0 300 0 300 -1080 0 -1080 0 0 -300z"/>
</g>
</svg>
