<svg width="299" height="300" viewBox="0 0 299 300" fill="none" xmlns="http://www.w3.org/2000/svg">
<path d="M192.368 299.458L42.4908 267.077L0.516884 110.434L1.35734 110.209L112.184 0.218689L264.801 40.3058L264.973 40.9443L305.554 196.592L305.038 197.187L192.368 299.458ZM44.4029 264.968L190.462 296.547L167.062 208.379L107.996 196.376L107.825 195.737L91.1359 131.776L3.62656 112.794L44.4029 264.968ZM169.106 207.603L192.506 295.772L302.576 195.565L262.907 43.3226L196.403 103.57L214.313 167.889L169.106 207.603ZM109.908 194.267L166.32 205.612L150.106 144.261L93.7323 132.22L109.908 194.267ZM152.207 143.698L168.364 204.837L211.393 167.075L194.167 105.31L152.207 143.698ZM94.4797 129.967L150.433 142.12L192.66 103.889L136.593 91.3101L94.4797 129.967ZM135.698 88.8125L136.329 88.6436L194.992 101.667L261.133 41.7449L112.658 2.82896L4.16386 110.597L91.406 129.422L135.698 88.8125Z" fill="white" fill-opacity="0.1"/>
</svg>
