<svg width="48" height="48" viewBox="0 0 48 48" fill="none" xmlns="http://www.w3.org/2000/svg">
<path d="M47.6051 5.9536C47.5766 5.92682 41.9453 0.556398 41.9453 0.556398C41.7301 0.34984 41.5074 0.136353 41.0917 0.136353H18.4208C17.7586 0.136353 17.2198 0.675034 17.2198 1.33722V5.02484L9.22949 6.39453C8.58903 6.50689 8.15831 7.11983 8.26927 7.75963L8.6748 10.1241C6.07765 10.9981 3.41121 11.899 0.837095 12.8237C0.228843 13.0461 -0.0903578 13.7224 0.126688 14.3343L5.24711 28.5683C5.35011 28.8547 5.62006 29.0331 5.90798 29.0331C5.98682 29.0331 6.06716 29.0197 6.14563 28.9914C6.51062 28.8601 6.70004 28.4579 6.56877 28.0929L1.52409 14.0694C3.94924 13.2011 6.46071 12.3513 8.91516 11.5252L11.3282 25.5933L14.1049 41.7951C14.2052 42.3671 14.7079 42.774 15.2753 42.774C15.3395 42.774 15.4047 42.7688 15.4701 42.758L22.9904 41.4674L28.867 40.4601L20.0287 43.6368L13.059 46.1428L7.64613 31.0873C7.51495 30.7224 7.11278 30.5329 6.7477 30.6641C6.38271 30.7953 6.19329 31.1976 6.32447 31.5625L11.8141 46.832C11.9897 47.3121 12.4445 47.6106 12.9254 47.6106C13.0582 47.6106 13.1931 47.5878 13.3246 47.5397L20.5037 44.9586L36.805 39.0995L39.9192 38.5657H46.7986C47.4608 38.5657 47.9996 38.0258 47.9996 37.3621V6.74491C47.9997 6.32459 47.7716 6.11016 47.6051 5.9536ZM45.7445 6.1199H42.2303L42.1433 6.12027C41.975 6.1214 41.5811 6.1243 41.4812 6.02505C41.4581 6.00211 41.4312 5.92551 41.4312 5.78328L41.423 1.99903L45.7445 6.1199ZM46.5951 37.161H18.6243V23.4746C18.6243 23.0868 18.3099 22.7724 17.9221 22.7724C17.5342 22.7724 17.2198 23.0868 17.2198 23.4746V37.3619C17.2198 38.0255 17.7586 38.5655 18.4208 38.5655H31.6057L22.753 40.0829L15.4512 41.3361L12.7125 25.3559L9.69102 7.74034L17.2197 6.44977V20.2162C17.2197 20.604 17.5342 20.9184 17.922 20.9184C18.3098 20.9184 18.6243 20.604 18.6243 20.2162V1.54078H40.0175L40.0266 5.78487C40.0266 6.2993 40.1831 6.71542 40.4916 7.02179C40.9657 7.49249 41.6359 7.52527 42.0519 7.52527C42.0876 7.52527 42.1215 7.52498 42.1533 7.5248L46.5951 7.52452V37.161Z" fill="#3D053E"/>
<path d="M22.0098 11.0408C22.0098 11.4286 22.3242 11.743 22.712 11.743H42.7907C43.1785 11.743 43.493 11.4286 43.493 11.0408C43.493 10.6529 43.1785 10.3385 42.7907 10.3385H22.712C22.3242 10.3385 22.0098 10.6529 22.0098 11.0408Z" fill="#3D053E"/>
<path d="M42.7907 15.3275H22.712C22.3242 15.3275 22.0098 15.6419 22.0098 16.0298C22.0098 16.4176 22.3242 16.732 22.712 16.732H42.7907C43.1785 16.732 43.493 16.4176 43.493 16.0298C43.493 15.6419 43.1785 15.3275 42.7907 15.3275Z" fill="#3D053E"/>
<path d="M42.7907 20.3165H22.712C22.3242 20.3165 22.0098 20.631 22.0098 21.0188C22.0098 21.4066 22.3242 21.7211 22.712 21.7211H42.7907C43.1785 21.7211 43.493 21.4066 43.493 21.0188C43.493 20.631 43.1785 20.3165 42.7907 20.3165Z" fill="#3D053E"/>
<path d="M42.7907 25.3055H22.712C22.3242 25.3055 22.0098 25.62 22.0098 26.0078C22.0098 26.3956 22.3242 26.7101 22.712 26.7101H42.7907C43.1785 26.7101 43.493 26.3956 43.493 26.0078C43.493 25.62 43.1785 25.3055 42.7907 25.3055Z" fill="#3D053E"/>
<path d="M42.7907 30.2948H22.712C22.3242 30.2948 22.0098 30.6092 22.0098 30.9971C22.0098 31.3849 22.3242 31.6993 22.712 31.6993H42.7907C43.1785 31.6993 43.493 31.3849 43.493 30.9971C43.493 30.6092 43.1785 30.2948 42.7907 30.2948Z" fill="#3D053E"/>
</svg>
