<svg width="41" height="45" viewBox="0 0 41 45" fill="none" xmlns="http://www.w3.org/2000/svg">
<path d="M20.7089 20.5376C19.8978 20.5376 19.2402 21.1951 19.2402 22.0063C19.2401 22.5927 19.5848 23.0974 20.0817 23.3328V25.1182C20.0817 25.4644 20.3624 25.7452 20.7088 25.7452C21.0552 25.7452 21.3359 25.4645 21.3359 25.1182V23.3328C21.8329 23.0974 22.1776 22.5927 22.1776 22.0063C22.1776 21.1951 21.52 20.5376 20.7089 20.5376Z" fill="#3D053E"/>
<path d="M36.3578 10.1161C33.6584 9.04798 31.5159 7.08065 30.3248 4.57669C30.0009 3.89576 29.3008 3.45569 28.541 3.45569H12.8277C12.068 3.45569 11.3679 3.89567 11.044 4.57669C9.85303 7.08065 7.71041 9.04798 5.01103 10.1161C4.25386 10.4157 3.76465 11.1375 3.76465 11.9549V15.7767C3.76465 20.7866 5.22556 25.7355 7.98948 30.0887C10.7802 34.4846 14.8242 38.1582 19.6838 40.7124L19.763 40.7541C20.0515 40.9057 20.3679 40.9815 20.6844 40.9815C21.0008 40.9815 21.3173 40.9057 21.6056 40.7542L21.6851 40.7124C26.5448 38.1581 30.5886 34.4846 33.3795 30.0887C36.1433 25.7354 37.6042 20.7865 37.6042 15.7767V11.9549C37.6042 11.1374 37.1149 10.4157 36.3578 10.1161ZM36.3502 15.7768C36.3502 20.5481 34.9568 25.2646 32.3208 29.4167C29.6472 33.6277 25.7676 37.1499 21.1018 39.6024L21.0224 39.6441C20.8108 39.7554 20.5581 39.7553 20.3464 39.6441L20.2673 39.6025C15.6012 37.15 11.7217 33.6278 9.04801 29.4167C6.41196 25.2647 5.0186 20.5481 5.0186 15.7767V11.9549C5.0186 11.6554 5.19673 11.3913 5.47236 11.2822C8.46784 10.097 10.8487 7.90684 12.1764 5.11538C12.2935 4.86901 12.5491 4.70982 12.8276 4.70982H28.5411C28.8196 4.70982 29.0752 4.86901 29.1924 5.11538C30.5201 7.90684 32.901 10.097 35.8964 11.2823C36.1721 11.3914 36.3502 11.6555 36.3502 11.955V15.7768Z" fill="#3D053E"/>
<path d="M39.5012 21.7273C39.1634 21.6509 38.8277 21.8628 38.7514 22.2007C36.8418 30.649 31.0256 37.9758 22.7942 42.3023L20.8814 43.3077C20.7579 43.3726 20.6104 43.3726 20.4869 43.3077L18.574 42.3023C10.3297 37.969 4.51066 30.6296 2.60899 22.166C2.53318 21.8282 2.19757 21.6157 1.85982 21.6917C1.52198 21.7676 1.3096 22.103 1.3855 22.4408C3.3678 31.2639 9.42013 38.9077 17.9906 43.4123L19.9035 44.4177C20.1479 44.5461 20.416 44.6104 20.6841 44.6104C20.9522 44.6104 21.2204 44.5461 21.4648 44.4176L23.3777 43.4122C31.9346 38.9146 37.9839 31.2841 39.9747 22.4771C40.0509 22.1393 39.839 21.8036 39.5012 21.7273Z" fill="#3D053E"/>
<path d="M39.1966 7.72631C35.8483 7.37306 33.2157 5.02288 32.7943 2.01122C32.6778 1.17901 31.9626 0.551514 31.1307 0.551514H10.2385C9.40667 0.551514 8.69149 1.17901 8.57506 2.01122C8.15358 5.02297 5.52089 7.37306 2.17276 7.72631C1.32437 7.8158 0.68457 8.53253 0.68457 9.3934V16.1265C0.68457 17.1049 0.735255 18.0941 0.835248 19.0666C0.868464 19.3893 1.14073 19.6296 1.45827 19.6296C1.47969 19.6296 1.50138 19.6285 1.52315 19.6262C1.86762 19.5909 2.1182 19.2829 2.08275 18.9384C1.98715 18.0083 1.93861 17.0622 1.93861 16.1265V9.3934C1.93861 9.17956 2.09927 8.99498 2.30433 8.97338C6.22626 8.55964 9.31554 5.7681 9.81705 2.18496C9.84786 1.9651 10.025 1.80556 10.2385 1.80556H31.1306C31.3441 1.80556 31.5214 1.9651 31.5522 2.18496C32.0535 5.7681 35.1429 8.55955 39.0648 8.97338C39.2699 8.99498 39.4305 9.17956 39.4305 9.3934V16.1265C39.4305 17.0523 39.383 17.9886 39.2894 18.9094C39.2544 19.2539 39.5053 19.5616 39.8498 19.5966C40.1941 19.6319 40.502 19.3807 40.5371 19.0363C40.635 18.0735 40.6846 17.0946 40.6846 16.1265V9.3934C40.6847 8.53253 40.0449 7.8158 39.1966 7.72631Z" fill="#3D053E"/>
<path d="M27.8664 16.2015H26.8354V13.2084C26.8354 9.83009 24.087 7.08167 20.7086 7.08167C17.3302 7.08167 14.5817 9.83009 14.5817 13.2084V16.2015H13.5508C12.4512 16.2015 11.5566 17.0961 11.5566 18.1957V27.1734C11.5566 28.273 12.4512 29.1676 13.5508 29.1676H27.8664C28.966 29.1676 29.8606 28.273 29.8606 27.1734V18.1957C29.8606 17.0961 28.966 16.2015 27.8664 16.2015ZM15.8359 13.2085C15.8359 10.5217 18.0218 8.33579 20.7087 8.33579C23.3956 8.33579 25.5815 10.5217 25.5815 13.2085V16.2016H15.8359V13.2085ZM28.6065 27.1734C28.6065 27.5815 28.2745 27.9136 27.8664 27.9136H13.5508C13.1427 27.9136 12.8107 27.5815 12.8107 27.1734V18.1957C12.8107 17.7876 13.1428 17.4555 13.5508 17.4555H27.8664C28.2745 17.4555 28.6065 17.7875 28.6065 18.1957V27.1734Z" fill="#3D053E"/>
</svg>
