<?xml version="1.0" standalone="no"?>
<!DOCTYPE svg PUBLIC "-//W3C//DTD SVG 20010904//EN"
 "http://www.w3.org/TR/2001/REC-SVG-20010904/DTD/svg10.dtd">
<svg version="1.0" xmlns="http://www.w3.org/2000/svg"
 width="454.000000pt" height="349.000000pt" viewBox="0 0 454.000000 349.000000"
 preserveAspectRatio="xMidYMid meet">

<g transform="translate(0.000000,349.000000) scale(0.100000,-0.100000)"
fill="#000000" stroke="none">
<path d="M2206 3481 c-3 -5 1 -166 9 -357 8 -192 15 -357 15 -366 0 -12 8 -18
25 -18 14 0 25 3 25 8 0 4 7 169 15 365 8 197 13 363 10 368 -8 12 -92 12 -99
0z"/>
<path d="M1930 3461 c-21 -6 -25 -12 -22 -42 2 -19 9 -54 17 -79 7 -25 21 -90
31 -145 9 -55 20 -104 24 -110 4 -5 16 -57 25 -115 10 -58 22 -110 26 -115 4
-6 11 -33 14 -61 9 -64 17 -78 42 -70 18 6 19 12 12 64 -4 31 -15 113 -24 182
-9 69 -23 170 -32 225 -9 55 -18 125 -19 155 -7 111 -24 132 -94 111z"/>
<path d="M2505 3459 c-10 -31 -23 -103 -19 -110 2 -4 -5 -63 -16 -131 -10 -67
-26 -179 -35 -248 -9 -69 -20 -151 -24 -183 -6 -46 -5 -60 6 -64 27 -10 40 6
47 58 4 30 11 58 15 64 5 5 16 55 25 110 10 55 21 109 26 120 5 11 17 63 25
115 9 52 22 111 29 130 18 49 29 127 18 134 -5 3 -28 8 -50 12 -31 5 -43 3
-47 -7z"/>
<path d="M1660 3393 c-8 -3 -23 -12 -32 -20 -16 -14 -16 -18 -1 -57 10 -22 25
-54 34 -71 10 -16 32 -70 49 -119 18 -49 38 -99 45 -110 7 -12 27 -59 43 -106
17 -47 39 -101 49 -120 10 -20 24 -52 32 -73 13 -34 37 -48 54 -31 3 3 -3 31
-13 62 -11 32 -35 107 -55 167 -21 61 -39 119 -41 130 -2 11 -20 70 -40 130
-19 61 -43 135 -53 165 -17 55 -34 67 -71 53z"/>
<path d="M2785 3364 c-9 -22 -20 -59 -25 -84 -5 -25 -23 -81 -40 -125 -17 -44
-32 -92 -35 -107 -2 -15 -20 -72 -40 -127 -20 -54 -38 -110 -40 -123 -1 -12
-10 -43 -19 -67 -13 -36 -14 -46 -4 -53 25 -16 37 -7 54 40 10 26 24 56 30 67
7 11 29 65 49 120 20 55 40 102 44 105 4 3 25 52 45 110 20 57 41 109 46 115
4 5 18 34 30 64 20 52 20 55 3 72 -10 10 -32 21 -50 25 -30 6 -33 4 -48 -32z"/>
<path d="M1372 3258 l-33 -20 27 -47 c15 -25 33 -53 40 -61 7 -8 36 -55 64
-105 28 -49 60 -99 70 -110 10 -11 41 -60 70 -110 28 -49 57 -94 64 -100 7 -5
25 -31 40 -57 29 -51 35 -55 53 -37 12 12 -46 133 -123 261 -19 32 -37 66 -39
78 -2 11 -29 63 -59 114 -31 52 -56 101 -56 108 0 22 -54 103 -70 105 -8 0
-30 -8 -48 -19z"/>
<path d="M3047 3230 c-15 -27 -27 -53 -27 -59 0 -6 -27 -58 -60 -114 -33 -57
-60 -109 -60 -117 0 -7 -14 -36 -31 -64 -18 -28 -56 -98 -86 -155 -52 -98 -54
-106 -37 -118 20 -15 34 -17 34 -5 0 4 16 32 37 62 20 30 62 100 95 155 32 55
58 95 58 90 0 -6 28 37 62 95 33 58 65 106 69 108 11 4 69 106 69 120 0 13
-56 46 -81 48 -9 1 -27 -19 -42 -46z"/>
<path d="M1133 3089 c-18 -16 -33 -33 -33 -37 0 -4 30 -39 68 -78 37 -39 119
-129 182 -199 63 -71 147 -162 185 -202 66 -69 72 -72 90 -59 20 15 20 15 -1
30 -12 9 -38 40 -58 70 -20 30 -42 61 -49 68 -35 38 -107 127 -107 134 0 8
-42 60 -134 169 -14 17 -26 35 -26 40 0 10 -74 95 -82 95 -2 0 -18 -14 -35
-31z"/>
<path d="M3304 3084 c-20 -22 -43 -52 -51 -67 -12 -25 -34 -54 -68 -91 -31
-33 -85 -104 -85 -110 0 -7 -72 -97 -108 -134 -7 -8 -31 -40 -52 -72 -22 -33
-44 -62 -50 -65 -15 -9 -12 -42 5 -48 15 -6 104 77 180 169 22 26 66 74 97
106 32 32 74 80 95 105 21 26 62 70 91 98 65 65 66 74 10 124 l-27 24 -37 -39z"/>
<path d="M930 2892 c-45 -54 -45 -51 -19 -78 13 -14 39 -35 59 -46 19 -12 74
-54 122 -95 48 -40 92 -73 97 -73 5 0 51 -36 104 -80 52 -44 99 -80 104 -80 5
0 20 -11 32 -24 29 -31 57 -38 72 -19 10 12 7 19 -17 39 -56 48 -69 61 -83 82
-8 11 -18 19 -22 16 -5 -2 -13 5 -19 17 -7 11 -14 18 -17 16 -5 -6 -38 21
-118 98 -82 79 -246 229 -259 237 -16 11 -20 10 -36 -10z"/>
<path d="M3433 2803 c-64 -60 -135 -126 -158 -148 -23 -22 -62 -56 -86 -77
-72 -60 -84 -70 -139 -131 -47 -51 -52 -59 -39 -72 13 -13 22 -10 73 27 31 24
97 76 146 116 49 39 92 72 96 72 6 0 143 107 154 121 3 3 25 19 50 34 51 32
90 70 90 88 0 14 -52 77 -63 77 -4 0 -59 -48 -124 -107z"/>
<path d="M758 2653 c-18 -21 -41 -64 -36 -67 59 -37 95 -57 148 -84 36 -19 87
-47 115 -64 27 -16 57 -31 66 -33 10 -2 60 -28 112 -58 53 -30 106 -58 119
-62 12 -4 40 -16 61 -27 30 -15 42 -17 53 -7 8 6 14 15 14 18 0 9 -127 91
-141 91 -5 0 -9 5 -9 11 0 5 -5 7 -10 4 -5 -3 -10 -1 -10 5 0 6 -4 8 -10 5 -5
-3 -10 -1 -10 6 0 7 -3 10 -6 6 -3 -3 -14 3 -25 14 -10 10 -26 19 -34 19 -8 0
-15 5 -15 11 0 5 -4 7 -10 4 -5 -3 -10 -1 -10 5 0 6 -4 9 -9 5 -5 -3 -12 3
-15 13 -3 9 -27 28 -53 42 -27 14 -55 31 -65 38 -9 8 -22 15 -30 16 -19 3 -61
27 -73 41 -5 7 -31 24 -56 39 -43 25 -47 25 -61 9z"/>
<path d="M3686 2641 c-27 -16 -51 -33 -55 -38 -5 -9 -59 -42 -133 -83 -15 -8
-53 -33 -84 -55 -79 -56 -104 -72 -139 -89 -16 -8 -42 -26 -57 -40 -15 -14
-30 -26 -35 -26 -10 0 -83 -52 -83 -59 0 -3 4 -12 9 -20 7 -11 25 -5 92 28 83
41 102 51 189 102 25 15 56 30 70 34 14 4 66 32 117 61 51 30 100 54 110 54
10 0 29 9 43 20 14 11 31 20 38 20 7 0 11 4 8 9 -4 5 -1 11 6 13 15 5 -5 59
-31 82 -15 13 -21 12 -65 -13z"/>
<path d="M2120 2520 c0 -5 -8 -9 -17 -9 -28 1 -87 -12 -93 -20 -3 -3 -23 -12
-45 -20 -53 -19 -154 -91 -216 -154 -119 -122 -184 -243 -216 -399 l-17 -88
-754 0 c-598 0 -753 -3 -750 -12 3 -7 23 -26 46 -43 23 -16 63 -46 89 -65 l48
-35 560 -3 c308 -2 567 -6 575 -10 8 -4 -223 -9 -515 -12 -345 -3 -529 -8
-528 -15 1 -5 41 -37 90 -70 l87 -60 515 -3 c424 -3 519 -6 535 -18 18 -12
-45 -14 -477 -14 -273 0 -497 -3 -497 -7 0 -5 28 -24 62 -43 34 -19 77 -48 96
-64 l34 -30 467 -4 c374 -4 470 -7 486 -18 17 -12 -42 -14 -403 -14 -232 0
-422 -4 -422 -8 0 -10 56 -62 97 -90 31 -22 37 -22 449 -22 l417 0 47 -30
c101 -65 259 -110 385 -110 124 0 288 45 387 105 l56 35 424 0 423 0 51 39
c29 21 61 42 72 45 11 4 26 13 32 21 11 13 -44 15 -441 15 -400 0 -451 2 -433
15 16 12 84 14 425 15 484 0 547 4 584 36 14 12 53 39 86 60 32 21 59 42 59
46 0 4 -221 8 -491 8 -425 0 -490 2 -480 14 10 12 97 15 535 18 l522 3 89 61
c49 34 91 66 93 73 3 8 -136 11 -534 11 -335 0 -534 4 -528 9 5 6 242 11 579
13 l570 3 47 35 c26 19 70 51 97 70 28 19 51 38 51 43 0 4 -341 7 -759 7
l-759 0 -7 48 c-27 186 -103 333 -233 452 -78 72 -89 80 -96 73 -3 -3 -8 2
-12 11 -3 9 -10 13 -15 10 -5 -3 -12 2 -15 10 -3 9 -10 13 -15 10 -5 -3 -9 0
-9 7 0 7 -3 10 -6 6 -4 -3 -13 1 -21 9 -9 8 -22 13 -29 10 -8 -3 -14 -1 -14 3
0 13 -58 31 -75 25 -8 -4 -15 -2 -15 4 0 6 -9 8 -20 5 -11 -3 -20 -1 -20 4 0
5 -65 9 -145 10 -80 1 -145 -2 -145 -7z m315 -65 c140 -38 275 -126 368 -240
59 -74 121 -200 136 -280 7 -33 14 -70 17 -82 4 -21 1 -23 -35 -23 l-38 0 -7
61 c-4 33 -11 70 -17 82 -9 21 -9 20 -5 -3 3 -14 8 -52 12 -83 6 -54 6 -57
-16 -57 -13 0 -37 -16 -59 -39 -50 -54 -104 -86 -190 -116 -217 -74 -455 -74
-672 0 -86 30 -140 62 -190 116 -20 22 -46 39 -58 39 -25 0 -26 18 -7 111 52
243 255 426 516 465 58 9 115 14 127 11 13 -2 23 0 23 6 0 17 -188 1 -260 -22
-90 -28 -182 -85 -252 -156 -79 -79 -153 -226 -170 -337 l-13 -78 -37 0 c-37
0 -37 1 -32 33 24 133 62 229 128 321 166 233 462 342 731 271z m-691 -703
c68 -64 105 -85 201 -115 121 -38 230 -51 374 -44 163 8 308 46 393 102 21 14
40 25 43 25 3 0 24 19 45 41 l40 42 112 -6 c62 -4 425 -7 807 -7 l694 0 -62
-40 -62 -40 -707 0 -708 0 -39 -41 c-84 -85 -190 -132 -384 -169 -141 -27
-311 -27 -452 0 -194 37 -300 84 -384 169 l-39 41 -708 0 -707 0 -62 40 -62
40 774 2 c426 2 789 4 808 6 28 2 42 -5 85 -46z m-89 -113 c84 -86 191 -133
384 -169 190 -35 268 -36 424 -5 228 44 324 85 412 174 l39 41 97 0 c123 0
134 -3 112 -36 -8 -13 -14 -25 -12 -25 10 -4 253 -7 639 -8 l425 -1 -52 -35
-52 -35 -523 0 -524 0 -49 -50 -49 -50 429 0 c237 0 454 -3 483 -7 l53 -6 -50
-33 -50 -34 -473 0 -474 0 -48 -49 c-45 -46 -46 -49 -24 -52 13 -2 210 -4 439
-4 l416 1 -44 -28 -44 -28 -543 0 -543 0 -7 38 c-7 47 -39 95 -89 136 -32 26
-48 31 -90 31 -89 0 -179 -78 -193 -167 l-7 -38 -538 0 -539 0 -40 26 c-22 15
-40 27 -40 28 0 0 191 1 425 1 234 0 425 2 425 5 0 2 -21 26 -47 52 l-47 48
-463 0 -463 0 -55 36 c-30 20 -55 38 -55 38 0 1 213 3 473 5 259 1 474 5 476
7 3 2 -15 25 -39 49 l-44 45 -518 0 -519 0 -52 35 -52 35 517 0 c354 0 519 3
523 11 4 5 -1 19 -10 29 -16 18 -15 19 17 23 18 2 74 5 123 5 l91 2 39 -41z
m693 -294 c33 -29 62 -90 62 -130 0 -18 -7 -27 -27 -32 -37 -10 -188 -10 -237
0 l-38 8 6 42 c20 126 149 188 234 112z m-88 -187 c52 0 147 2 210 4 l115 4
-52 -22 c-177 -78 -368 -78 -544 -1 l-51 22 114 -4 c62 -1 156 -3 208 -3z"/>
<path d="M2430 2394 c100 -30 207 -93 281 -167 42 -42 47 -45 23 -14 -34 45
-129 119 -194 152 -52 26 -144 55 -174 54 -12 0 17 -11 64 -25z"/>
<path d="M1937 2122 c-70 -71 -127 -133 -127 -138 0 -5 22 -31 48 -57 l48 -47
64 60 c34 34 66 57 70 53 47 -51 170 -195 170 -198 0 -3 -20 -25 -45 -50 -40
-40 -44 -47 -33 -65 18 -29 31 -25 79 21 l43 42 42 -48 c37 -41 44 -46 63 -36
49 27 53 73 9 118 l-32 33 29 30 c16 17 35 28 41 26 15 -6 48 29 40 42 -3 5
12 25 32 45 l38 37 29 -30 29 -30 23 21 c12 12 20 26 16 32 -3 6 -1 7 5 3 6
-3 23 5 38 19 l28 26 -84 84 c-72 72 -89 85 -118 85 -19 0 -35 -6 -38 -14 -3
-8 -11 -13 -17 -11 -7 3 -20 -7 -30 -20 -18 -25 -18 -26 12 -62 l31 -37 -32
-33 c-17 -18 -35 -30 -40 -27 -13 8 -48 -26 -48 -46 0 -17 -40 -60 -56 -60 -5
0 -46 37 -92 83 l-82 82 70 70 c53 53 70 76 70 97 l0 28 -83 0 -83 0 -127
-128z m218 92 l50 -6 -150 -148 -149 -149 -37 32 -36 32 121 123 c66 67 128
122 136 122 8 0 38 -3 65 -6z m419 -113 c47 -48 73 -80 64 -82 -7 -2 -49 33
-94 78 -47 49 -74 83 -65 83 9 0 52 -35 95 -79z m15 -140 c-2 -6 -45 30 -95
79 -51 50 -87 93 -82 98 10 10 182 -162 177 -177z m-139 24 c-19 -19 -38 -35
-44 -35 -5 0 5 16 24 35 19 19 38 35 44 35 5 0 -5 -16 -24 -35z m-115 -115
c-16 -16 -31 -28 -34 -25 -2 3 8 19 24 35 16 16 31 28 34 25 2 -3 -8 -19 -24
-35z"/>
<path d="M637 2400 c-10 -10 -20 -33 -23 -52 -6 -34 -6 -34 48 -50 29 -9 110
-35 179 -57 69 -23 135 -41 145 -41 11 0 24 -4 30 -8 5 -5 52 -21 104 -37 52
-15 119 -36 149 -47 44 -15 56 -16 62 -6 5 7 8 17 6 21 -5 17 -138 79 -262
122 -44 16 -82 32 -85 36 -3 4 -45 21 -94 38 -49 18 -106 40 -125 50 -20 11
-54 26 -76 34 -36 13 -42 13 -58 -3z"/>
<path d="M3810 2370 c-25 -9 -60 -24 -78 -33 -18 -10 -72 -32 -120 -48 -48
-17 -89 -34 -92 -38 -3 -4 -41 -20 -85 -36 -124 -43 -257 -105 -262 -122 -2
-4 1 -14 6 -21 6 -10 18 -9 62 6 30 11 97 32 149 47 52 16 99 32 105 37 5 4
18 8 29 8 10 0 76 18 145 41 69 22 150 48 179 57 54 16 54 16 48 50 -3 19 -13
42 -23 52 -17 15 -21 15 -63 0z"/>
<path d="M570 2031 c0 -46 2 -51 23 -51 12 0 72 -5 132 -10 61 -5 137 -10 170
-10 33 -1 107 -6 164 -12 68 -7 106 -7 113 0 6 6 36 8 70 4 55 -5 60 -3 56 14
-2 15 -15 20 -61 24 -32 3 -61 10 -65 17 -4 6 -47 14 -97 17 -49 4 -108 11
-130 16 -22 5 -89 14 -150 20 -60 5 -136 13 -167 16 l-58 7 0 -52z"/>
<path d="M3805 2039 c-81 -11 -217 -27 -350 -40 -60 -6 -113 -16 -117 -23 -4
-6 -33 -13 -65 -16 -46 -4 -59 -9 -61 -24 -4 -17 1 -19 56 -14 34 4 64 2 70
-4 7 -7 45 -7 113 0 57 6 131 11 164 12 33 0 110 5 170 10 61 5 120 10 133 10
20 0 22 5 22 50 l0 50 -37 -1 c-21 -1 -65 -5 -98 -10z"/>
<path d="M740 1250 c-25 -10 -75 -26 -112 -35 -51 -13 -68 -22 -68 -35 0 -26
30 -80 44 -80 20 0 99 29 106 39 3 4 37 18 75 31 39 12 72 24 74 27 5 4 -60
73 -68 72 -4 0 -26 -9 -51 -19z"/>
<path d="M3611 1175 c-13 -20 -22 -37 -20 -39 2 -2 36 -14 74 -26 39 -13 72
-27 75 -31 7 -10 86 -39 106 -39 14 0 44 54 44 80 0 13 -17 22 -67 35 -38 9
-90 26 -117 36 -64 25 -67 25 -95 -16z"/>
<path d="M920 1057 c-41 -23 -106 -58 -144 -77 -37 -19 -70 -40 -73 -47 -7
-18 36 -83 55 -83 10 0 40 16 67 34 28 19 91 60 140 90 50 30 99 62 110 70 11
9 31 25 45 36 l25 19 -75 1 c-70 0 -80 -3 -150 -43z"/>
<path d="M1286 1010 c-59 -50 -114 -90 -121 -90 -7 0 -15 -3 -17 -7 -5 -13
-175 -153 -184 -153 -5 0 -29 -18 -53 -39 -48 -42 -47 -53 1 -98 20 -19 27
-21 40 -10 25 19 186 166 243 222 28 28 81 74 117 104 111 89 156 162 101 161
-10 0 -67 -41 -127 -90z"/>
<path d="M3336 1081 c19 -19 81 -61 174 -117 52 -32 100 -63 105 -69 16 -19
81 -55 99 -55 16 0 56 54 56 76 0 6 -30 26 -67 45 -38 18 -105 55 -151 81 -78
45 -88 48 -155 48 -44 0 -67 -4 -61 -9z"/>
<path d="M3051 1033 c31 -36 55 -58 115 -108 26 -22 67 -58 89 -80 92 -89 249
-231 269 -242 18 -10 24 -8 48 20 16 18 28 37 28 43 0 11 -72 76 -94 83 -6 2
-45 32 -86 66 -41 34 -91 73 -111 86 -46 30 -176 135 -184 149 -3 5 -27 10
-52 10 l-46 0 24 -27z"/>
<path d="M1524 957 c-33 -34 -80 -84 -104 -112 -54 -63 -185 -206 -272 -299
-38 -39 -68 -75 -68 -81 0 -17 54 -65 73 -65 15 0 82 73 82 89 0 8 137 175
148 179 4 2 7 9 7 17 0 7 35 54 78 105 42 50 77 95 77 100 0 4 17 27 37 51 43
50 45 55 20 68 -14 7 -29 -2 -78 -52z"/>
<path d="M2867 992 c-16 -18 -16 -20 3 -37 11 -10 36 -42 55 -71 20 -29 41
-59 48 -66 37 -40 107 -127 107 -135 0 -4 36 -50 80 -101 44 -52 80 -98 80
-103 0 -14 71 -89 84 -89 16 0 66 48 66 63 0 7 -35 49 -78 94 -94 100 -206
223 -258 282 -22 25 -69 75 -105 113 -63 66 -66 68 -82 50z"/>
<path d="M1690 866 c-17 -30 -35 -56 -39 -58 -5 -2 -35 -48 -67 -103 -31 -55
-63 -104 -70 -110 -7 -5 -36 -50 -64 -100 -29 -49 -57 -97 -64 -105 -7 -8 -25
-36 -40 -62 l-27 -47 38 -25 c21 -14 43 -26 49 -26 6 0 26 30 45 68 18 37 57
108 86 159 29 51 53 97 53 103 0 6 25 55 56 108 31 53 58 105 59 114 2 10 15
37 29 61 31 52 31 54 7 67 -17 9 -23 3 -51 -44z"/>
<path d="M2727 896 c-17 -13 -14 -20 36 -117 30 -57 71 -131 91 -164 20 -33
36 -66 36 -73 0 -7 20 -45 43 -85 24 -39 60 -106 80 -148 20 -42 43 -79 52
-83 14 -5 85 29 85 42 0 8 -50 94 -66 112 -7 8 -35 56 -64 105 -28 50 -57 95
-64 100 -7 6 -39 55 -70 110 -32 55 -62 101 -67 103 -4 2 -22 28 -39 58 -17
30 -32 54 -33 54 -1 0 -10 -7 -20 -14z"/>
<path d="M1859 803 c-8 -21 -22 -53 -32 -73 -10 -19 -34 -80 -54 -135 -20 -55
-39 -102 -43 -105 -4 -3 -21 -43 -38 -90 -16 -47 -43 -112 -60 -145 -48 -96
-48 -102 -10 -125 58 -35 73 -28 92 43 9 34 24 82 33 107 46 136 64 191 79
245 9 33 25 79 35 102 10 23 21 57 23 75 3 18 12 53 21 77 12 36 13 46 3 53
-24 14 -34 8 -49 -29z"/>
<path d="M2562 822 c-10 -7 -8 -21 7 -68 11 -32 39 -117 62 -189 23 -72 57
-175 75 -230 19 -55 34 -109 35 -120 0 -11 10 -40 23 -65 19 -39 26 -45 50
-43 39 3 68 31 60 57 -3 12 -20 48 -36 81 -17 33 -41 91 -54 129 -13 38 -30
79 -37 90 -8 12 -30 66 -50 121 -20 55 -44 116 -54 135 -10 20 -24 52 -32 73
-15 37 -25 43 -49 29z"/>
<path d="M2037 783 c-3 -10 -9 -38 -12 -63 -4 -25 -11 -49 -15 -55 -4 -5 -15
-59 -25 -120 -10 -60 -22 -112 -25 -115 -4 -3 -15 -50 -24 -105 -10 -55 -23
-120 -31 -145 -32 -110 -24 -135 44 -142 31 -3 35 0 42 27 5 17 10 55 13 85 4
54 22 191 52 380 8 52 16 120 19 151 2 30 7 68 10 82 4 16 3 27 -3 27 -6 0
-17 3 -25 6 -9 3 -17 -2 -20 -13z"/>
<path d="M2399 780 c-13 -8 -14 -19 -8 -67 4 -32 15 -114 24 -183 9 -69 23
-170 32 -225 9 -55 17 -125 19 -155 3 -64 18 -108 38 -116 7 -3 29 -1 47 4 32
8 34 11 31 48 -1 21 -9 59 -17 84 -7 25 -21 90 -31 145 -9 55 -20 102 -24 105
-3 3 -15 55 -25 115 -10 61 -21 115 -25 120 -4 6 -11 30 -15 55 -12 83 -15 88
-46 70z"/>
<path d="M2210 753 c0 -10 -7 -175 -15 -367 -11 -258 -12 -353 -4 -363 13 -15
85 -18 94 -4 3 5 -2 171 -10 368 -8 196 -15 363 -15 370 0 7 -11 13 -25 13
-17 0 -25 -6 -25 -17z"/>
</g>
</svg>
