<?xml version="1.0" standalone="no"?>
<!DOCTYPE svg PUBLIC "-//W3C//DTD SVG 20010904//EN"
 "http://www.w3.org/TR/2001/REC-SVG-20010904/DTD/svg10.dtd">
<svg version="1.0" xmlns="http://www.w3.org/2000/svg"
 width="1170.000000pt" height="700.000000pt" viewBox="0 0 1170.000000 700.000000"
 preserveAspectRatio="xMidYMid meet">

<g transform="translate(0.000000,700.000000) scale(0.100000,-0.100000)"
fill="#000000" stroke="none">
<path d="M0 3500 l0 -3500 5850 0 5850 0 0 3500 0 3500 -5850 0 -5850 0 0
-3500z m8601 1300 c278 -70 459 -261 505 -534 15 -89 15 -104 0 -210 -51 -350
-213 -622 -605 -1018 l-126 -126 -280 -7 c-154 -4 -340 -10 -413 -13 -72 -4
-132 -5 -132 -2 0 3 66 66 147 140 219 202 579 564 656 660 117 145 176 298
157 401 -18 97 -76 152 -179 172 l-61 12 0 272 0 273 128 0 c92 0 148 -6 203
-20z m-431 -279 l0 -279 -30 -12 c-48 -20 -116 -101 -135 -161 -9 -30 -19
-106 -22 -171 -4 -78 -10 -118 -17 -118 -6 0 -113 -9 -236 -20 -124 -11 -237
-20 -252 -20 l-27 0 5 128 c11 323 97 548 271 713 73 69 101 89 192 134 65 33
206 83 239 84 9 1 12 -61 12 -278z m-902 -168 l2 -253 -22 -5 c-13 -3 -108
-14 -213 -25 -104 -11 -253 -26 -330 -35 -77 -8 -146 -15 -152 -15 -10 0 -13
56 -13 245 l0 245 23 4 c20 5 330 48 547 76 47 7 87 14 90 16 2 3 18 4 35 2
l30 -3 3 -252z m-828 -968 l0 -1115 -250 0 -250 0 0 1080 c0 857 3 1080 13
1081 6 0 111 15 232 33 121 18 228 34 238 35 16 1 17 -58 17 -1114z m-1350
-100 l0 -1015 -215 0 -215 0 2 988 3 987 170 26 c94 15 189 27 213 28 l42 1 0
-1015z m-582 722 c2 -161 0 -208 -10 -212 -13 -4 -473 -57 -516 -59 l-23 -1 0
205 0 205 83 13 c229 36 406 59 433 58 l30 -1 3 -208z m-628 -807 l0 -930
-190 0 -190 0 0 909 0 908 63 7 c34 4 105 13 157 21 52 7 110 13 128 14 l32 1
0 -930z m-520 666 l0 -194 -37 -6 c-43 -7 -224 -28 -483 -56 -96 -11 -233 -26
-305 -35 -71 -8 -138 -15 -147 -15 -17 0 -18 15 -18 185 0 169 1 185 18 185 9
0 62 7 117 15 55 7 168 23 250 34 83 12 200 28 260 37 61 8 153 21 205 29 52
7 105 13 118 14 l22 1 0 -194z m3657 -443 l-2 -258 -85 -6 c-47 -4 -154 -10
-237 -14 l-153 -7 0 251 c0 138 1 251 3 252 8 2 399 37 434 38 l42 1 -2 -257z
m-3967 -503 l0 -650 -180 0 -180 0 0 630 c0 347 1 630 3 631 2 1 322 36 345
38 9 1 12 -135 12 -649z m1261 311 c0 -117 -2 -215 -3 -216 -2 -2 -84 -6 -182
-10 -166 -7 -179 -6 -173 10 4 9 7 103 7 209 l0 193 138 12 c75 7 146 14 157
16 59 9 56 19 56 -214z m4832 -398 c2 -5 2 -133 -1 -285 l-4 -278 -854 0 -854
0 0 258 0 259 148 7 c81 4 289 11 462 16 173 5 416 12 540 16 124 4 227 8 229
10 8 8 330 4 334 -3z m-1875 -306 l2 -257 -365 0 -365 0 0 249 0 249 353 9
c193 5 357 9 362 8 6 -1 11 -97 13 -258z m-1468 -22 l0 -235 -312 2 -313 3 -3
223 -2 222 27 1 c134 7 381 16 481 17 l122 2 0 -235z m-1292 -17 l-3 -213
-273 -3 -272 -2 2 207 3 208 140 5 c77 3 200 7 273 8 l132 2 -2 -212z"/>
</g>
</svg>
