<?xml version="1.0" standalone="no"?>
<!DOCTYPE svg PUBLIC "-//W3C//DTD SVG 20010904//EN"
 "http://www.w3.org/TR/2001/REC-SVG-20010904/DTD/svg10.dtd">
<svg version="1.0" xmlns="http://www.w3.org/2000/svg"
 width="939.000000pt" height="451.000000pt" viewBox="0 0 939.000000 451.000000"
 preserveAspectRatio="xMidYMid meet">

<g transform="translate(0.000000,451.000000) scale(0.100000,-0.100000)"
fill="#000000" stroke="none">
<path d="M5 2255 c0 -1243 1 -1633 2 -867 l3 1392 265 0 265 0 0 -1385 0
-1385 528 2 527 3 3 1385 2 1385 618 -5 617 -5 48 -25 c55 -27 96 -70 129
-133 33 -62 32 -173 -3 -247 -17 -37 -175 -233 -487 -607 -254 -304 -462 -555
-462 -558 0 -3 312 -5 693 -5 l692 1 355 410 c195 225 370 436 388 468 42 76
58 160 42 235 -22 105 -59 160 -286 416 -298 336 -430 466 -520 513 -149 77
-26 72 -1739 72 l-1530 0 -40 -21 c-44 -23 -83 -72 -93 -119 -4 -16 -9 278
-12 655 -3 377 -5 -332 -5 -1575z"/>
<path d="M6804 4491 c-47 -22 -96 -76 -114 -129 -7 -21 -14 -110 -17 -209 l-5
-173 703 0 c467 0 724 -4 766 -11 78 -14 120 -41 153 -99 l25 -45 3 -935 c2
-642 -1 -951 -8 -987 -15 -70 -45 -112 -105 -142 l-49 -26 -516 0 c-468 0
-520 2 -566 18 -67 23 -128 77 -162 141 -38 73 -38 178 0 256 17 34 167 223
400 501 205 245 411 492 458 548 47 56 87 106 88 111 2 7 -241 10 -690 9
l-693 0 -345 -400 c-190 -219 -360 -420 -377 -446 -91 -133 -88 -299 10 -435
51 -71 498 -567 586 -650 84 -80 177 -135 276 -164 55 -16 127 -18 825 -22
530 -2 795 0 864 8 196 23 365 79 530 177 93 56 253 207 313 298 56 84 125
225 156 320 61 184 60 173 64 785 5 625 2 669 -59 858 -42 132 -80 214 -153
322 -155 234 -402 407 -687 484 -196 53 -251 56 -969 56 -624 0 -666 -2 -705
-19z"/>
<path d="M4430 2260 l0 -1060 530 0 530 0 0 1060 0 1060 -530 0 -530 0 0
-1060z"/>
</g>
</svg>
