<?xml version="1.0" standalone="no"?>
<!DOCTYPE svg PUBLIC "-//W3C//DTD SVG 20010904//EN"
 "http://www.w3.org/TR/2001/REC-SVG-20010904/DTD/svg10.dtd">
<svg version="1.0" xmlns="http://www.w3.org/2000/svg"
 width="600.000000pt" height="480.000000pt" viewBox="0 0 600.000000 480.000000"
 preserveAspectRatio="xMidYMid meet">

<g transform="translate(0.000000,480.000000) scale(0.100000,-0.100000)"
fill="#000000" stroke="none">
<path d="M3322 4207 c-9 -10 -1119 -2268 -1139 -2314 -4 -10 30 -13 151 -13
153 0 157 1 165 23 5 12 135 279 290 592 l280 570 75 3 c44 2 76 -1 76 -7 0
-5 -41 -92 -91 -193 -149 -300 -479 -977 -479 -983 0 -3 69 -5 153 -5 l152 0
516 1053 516 1052 257 3 257 2 -3 113 -3 112 -354 0 -353 0 -202 -412 -201
-413 -77 0 c-43 0 -78 2 -78 4 0 2 41 87 91 188 96 193 309 629 309 633 0 2
-67 3 -149 4 -107 0 -152 -3 -159 -12z"/>
<path d="M1670 3805 l0 -405 173 -2 172 -3 5 -750 5 -749 414 844 c228 465
483 986 567 1158 l153 312 -745 0 -744 0 0 -405z"/>
<path d="M4044 3778 c-81 -158 -924 -1883 -924 -1890 0 -4 229 -8 510 -8 l510
0 2 758 3 757 174 2 173 2 2 215 1 216 -212 0 -213 0 -26 -52z"/>
<path d="M4478 1393 c-2 -23 -10 -29 -41 -35 -80 -17 -153 -72 -193 -148 -26
-49 -26 -191 0 -240 40 -75 107 -124 189 -138 36 -6 42 -11 45 -35 3 -26 5
-27 73 -27 67 0 69 1 69 25 0 14 6 27 13 29 110 30 132 41 173 81 104 104 97
303 -13 394 -32 26 -70 42 -160 67 -7 2 -13 15 -13 29 0 24 -2 25 -69 25 -68
0 -70 -1 -73 -27z m-8 -298 c0 -85 -4 -155 -8 -155 -16 0 -59 55 -71 89 -23
69 -8 152 35 195 15 14 31 26 35 26 5 0 9 -70 9 -155z m205 131 c40 -40 55
-124 35 -197 -10 -35 -53 -89 -71 -89 -5 0 -9 70 -9 155 0 101 4 155 10 155 6
0 22 -11 35 -24z"/>
<path d="M802 1381 c-73 -25 -122 -67 -157 -136 -27 -53 -30 -68 -30 -154 0
-85 3 -103 28 -153 53 -107 141 -154 276 -146 162 10 257 108 268 278 8 111
-13 177 -80 245 -40 41 -65 57 -106 69 -71 21 -133 20 -199 -3z m168 -139 c71
-71 64 -253 -11 -306 -35 -24 -92 -21 -126 8 -70 59 -71 230 -3 298 22 22 38
28 70 28 32 0 48 -6 70 -28z"/>
<path d="M2199 1387 c-144 -41 -229 -153 -229 -302 0 -88 25 -152 83 -209 64
-63 126 -86 236 -86 97 0 154 15 147 38 -2 9 -7 36 -11 58 l-6 42 -82 -5 c-72
-4 -87 -1 -121 19 -52 31 -76 78 -76 151 0 118 73 185 188 174 32 -3 64 -8 73
-12 13 -5 19 6 32 55 14 59 14 61 -6 71 -31 17 -175 21 -228 6z"/>
<path d="M120 1325 l0 -65 75 0 75 0 0 -230 0 -230 80 0 80 0 0 230 0 230 80
0 80 0 0 65 0 65 -235 0 -235 0 0 -65z"/>
<path d="M1276 1348 c-3 -24 -10 -135 -16 -248 -6 -113 -13 -226 -16 -252 l-6
-48 75 0 75 0 7 195 c4 107 10 195 15 195 4 0 12 -26 19 -57 7 -32 26 -118 44
-190 l31 -133 62 0 63 0 15 53 c8 28 31 111 51 182 54 190 53 189 55 135 1
-25 3 -58 4 -75 1 -16 3 -92 4 -167 l2 -138 80 0 81 0 -6 73 c-7 89 -25 440
-25 485 l0 33 -106 -3 -107 -3 -23 -85 c-13 -47 -33 -124 -45 -172 -12 -49
-24 -88 -28 -88 -4 0 -25 78 -47 173 l-39 172 -107 3 -107 3 -5 -43z"/>
<path d="M2528 1095 l-3 -295 77 0 77 0 3 118 3 117 29 -2 c44 -3 71 -37 95
-116 38 -126 29 -117 124 -117 l84 0 -42 119 c-48 137 -64 165 -111 193 l-34
20 95 123 c52 68 95 126 95 129 0 3 -42 6 -92 6 l-93 0 -70 -115 c-38 -63 -73
-115 -77 -115 -5 0 -8 52 -8 115 l0 115 -75 0 -74 0 -3 -295z"/>
<path d="M3120 1095 l0 -295 80 0 80 0 0 115 0 115 95 0 95 0 0 -115 0 -115
80 0 80 0 0 295 0 295 -80 0 -80 0 0 -110 0 -110 -95 0 -95 0 0 110 0 110 -80
0 -80 0 0 -295z"/>
<path d="M3740 1095 l0 -295 200 0 201 0 -3 63 -3 62 -117 3 -118 3 0 54 0 55
105 0 105 0 0 60 0 59 -102 3 -103 3 -3 48 -3 47 115 0 116 0 0 65 0 65 -195
0 -195 0 0 -295z"/>
<path d="M4890 1325 l0 -64 78 -3 77 -3 3 -227 2 -228 78 0 77 0 0 227 0 228
78 3 77 3 0 64 0 65 -235 0 -235 0 0 -65z"/>
<path d="M5430 1096 l0 -295 46 -7 c25 -3 89 -4 143 -2 205 11 295 86 279 233
-12 105 -98 167 -233 168 l-75 0 0 99 0 98 -80 0 -80 0 0 -294z m274 -47 c26
-20 34 -57 20 -94 -9 -23 -57 -45 -99 -45 l-35 0 0 80 0 80 44 0 c29 0 52 -7
70 -21z"/>
</g>
</svg>
