<?xml version="1.0" standalone="no"?>
<!DOCTYPE svg PUBLIC "-//W3C//DTD SVG 20010904//EN"
 "http://www.w3.org/TR/2001/REC-SVG-20010904/DTD/svg10.dtd">
<svg version="1.0" xmlns="http://www.w3.org/2000/svg"
 width="768.000000pt" height="511.000000pt" viewBox="0 0 768.000000 511.000000"
 preserveAspectRatio="xMidYMid meet">

<g transform="translate(0.000000,511.000000) scale(0.100000,-0.100000)"
fill="#000000" stroke="none">
<path d="M3164 4088 c-115 -66 -213 -124 -218 -129 -11 -10 660 -10 764 0 l65
6 -45 31 c-41 28 -286 175 -336 202 -18 9 -49 -5 -230 -110z"/>
<path d="M4260 4202 c0 -14 334 -584 395 -675 25 -37 34 -44 39 -32 3 9 6 116
6 238 l0 222 -28 16 c-214 123 -353 205 -379 221 -18 11 -33 15 -33 10z"/>
<path d="M4195 4165 c-148 -74 -377 -210 -393 -233 -21 -31 -253 -436 -335
-587 -30 -55 -51 -104 -47 -109 5 -4 44 11 87 34 306 165 305 164 331 205 66
103 406 706 400 709 -2 1 -21 -8 -43 -19z"/>
<path d="M2945 3888 c-2 -7 -6 -110 -10 -229 l-6 -216 58 -33 c32 -18 131 -75
221 -127 90 -52 165 -93 167 -91 3 3 -23 51 -56 109 -34 57 -93 158 -132 224
-92 158 -227 375 -233 375 -3 0 -6 -6 -9 -12z"/>
<path d="M3932 3441 l-93 -6 178 -106 c98 -58 192 -114 209 -124 l31 -18 209
118 c115 65 216 124 224 132 12 11 -40 13 -325 11 -187 -1 -382 -4 -433 -7z"/>
<path d="M4065 2988 c-120 -23 -242 -113 -285 -211 -87 -197 -13 -434 162
-523 230 -117 518 -36 616 174 24 51 27 68 27 172 0 104 -3 121 -27 172 -79
168 -280 257 -493 216z m201 -177 c77 -35 124 -115 124 -212 0 -144 -104 -240
-246 -226 -95 10 -163 64 -189 151 -19 63 -19 90 0 154 37 123 189 188 311
133z"/>
<path d="M4865 2990 c-92 -20 -149 -56 -192 -121 -37 -56 -38 -145 -4 -206 41
-72 97 -101 298 -153 76 -20 123 -47 123 -71 0 -5 -11 -21 -24 -34 -48 -47
-166 -43 -287 11 -36 16 -63 23 -69 18 -4 -5 -25 -39 -45 -76 l-36 -67 43 -22
c149 -76 361 -88 483 -27 94 47 144 134 130 226 -9 61 -26 92 -70 131 -45 39
-85 56 -207 86 -122 30 -158 48 -158 79 0 12 9 31 21 42 33 30 171 26 265 -8
l71 -25 32 73 c17 40 31 75 31 77 0 8 -76 37 -135 52 -74 19 -217 27 -270 15z"/>
<path d="M1793 2968 c-5 -7 -33 -68 -62 -136 -29 -68 -65 -152 -82 -187 -16
-35 -29 -66 -29 -68 0 -3 -31 -75 -69 -161 -38 -86 -72 -165 -76 -176 -6 -19
-2 -20 104 -20 l110 0 153 88 153 87 -122 3 c-68 1 -123 5 -123 7 0 4 90 238
128 332 9 24 20 43 23 43 3 0 36 -78 73 -172 37 -95 86 -221 109 -280 l42
-108 103 0 c56 0 102 3 102 8 0 7 -41 101 -258 600 l-67 152 -101 0 c-70 0
-105 -4 -111 -12z"/>
<path d="M2400 2600 l0 -380 227 2 227 3 48 80 c26 44 48 83 48 88 0 4 -79 7
-175 7 l-175 0 0 290 0 290 -100 0 -100 0 0 -380z"/>
<path d="M3010 2601 l0 -381 100 0 100 0 0 295 0 295 23 1 c67 2 162 -3 181
-11 44 -17 66 -49 66 -95 0 -36 -5 -47 -30 -69 -31 -25 -60 -34 -136 -38 l-41
-3 107 -178 c59 -98 112 -183 117 -188 5 -5 56 -8 116 -7 l106 3 -85 128 c-46
70 -84 130 -84 133 0 2 16 19 36 36 110 96 122 280 25 377 -66 66 -104 74
-368 79 l-233 4 0 -381z"/>
<path d="M5626 2972 c-2 -4 -60 -135 -129 -292 -69 -157 -141 -322 -161 -367
-20 -45 -36 -84 -36 -87 0 -3 47 -6 104 -6 l105 0 19 53 c65 169 195 493 201
500 8 8 48 -84 116 -261 19 -52 35 -98 35 -103 0 -5 -53 -9 -117 -9 -140 0
-142 4 45 -104 l133 -76 114 0 114 0 -95 218 c-53 119 -127 290 -166 380 l-70
162 -104 0 c-56 0 -105 -3 -108 -8z"/>
</g>
</svg>
