<?xml version="1.0" standalone="no"?>
<!DOCTYPE svg PUBLIC "-//W3C//DTD SVG 20010904//EN"
 "http://www.w3.org/TR/2001/REC-SVG-20010904/DTD/svg10.dtd">
<svg version="1.0" xmlns="http://www.w3.org/2000/svg"
 width="200.000000pt" height="200.000000pt" viewBox="0 0 200.000000 200.000000"
 preserveAspectRatio="xMidYMid meet">

<g transform="translate(0.000000,200.000000) scale(0.100000,-0.100000)"
fill="#000000" stroke="none">
<path d="M890 1449 l-45 -21 30 -15 c48 -25 105 -73 105 -89 0 -20 -7 -18 -49
15 -51 40 -75 51 -110 51 -29 0 -31 -3 -31 -34 0 -23 13 -53 39 -92 22 -32 37
-62 34 -67 -8 -13 -30 10 -71 74 l-39 59 -19 -42 c-25 -55 -25 -167 0 -223 16
-38 18 -39 31 -20 58 85 82 115 94 115 9 0 4 -12 -13 -35 -15 -20 -36 -55 -47
-79 -32 -73 -6 -99 67 -67 24 11 59 32 79 47 19 14 35 22 35 17 0 -12 -45 -54
-94 -86 l-40 -26 49 -22 c39 -17 62 -21 119 -17 40 3 86 13 105 23 32 16 33
18 15 28 -42 22 -114 82 -114 95 0 8 18 -1 46 -22 62 -47 111 -63 131 -43 22
22 10 74 -32 132 -19 27 -32 51 -30 54 9 8 53 -40 77 -85 12 -24 26 -44 30
-44 14 0 43 98 43 150 0 54 -29 150 -45 150 -4 0 -13 -12 -19 -27 -15 -36 -77
-110 -85 -102 -4 3 9 30 29 59 92 136 32 185 -101 83 -24 -18 -46 -28 -49 -23
-5 8 70 74 113 100 15 8 15 11 2 20 -52 35 -173 40 -240 9z m160 -164 c62 -32
79 -121 34 -174 -61 -73 -168 -52 -195 39 -30 101 68 183 161 135z"/>
<path d="M952 1227 c-12 -13 -22 -33 -22 -46 0 -28 42 -71 70 -71 26 0 70 43
70 68 0 11 -9 31 -21 46 -26 33 -68 34 -97 3z"/>
<path d="M1272 740 c-62 -26 -53 -151 12 -169 35 -9 85 2 98 21 12 20 9 112
-5 131 -15 21 -73 30 -105 17z m76 -64 c2 -15 1 -39 -3 -53 -4 -19 -11 -24
-33 -21 -23 3 -27 8 -30 42 -5 54 3 68 35 64 22 -2 29 -9 31 -32z"/>
<path d="M580 655 c0 -84 0 -85 25 -85 24 0 25 2 25 70 l0 70 30 0 30 0 0 -70
c0 -63 2 -70 20 -70 18 0 20 7 20 85 l0 85 -75 0 -75 0 0 -85z"/>
<path d="M770 655 c0 -78 2 -85 20 -85 18 0 20 7 20 71 l0 70 33 -3 32 -3 3
-67 c3 -60 5 -68 22 -68 18 0 20 7 20 85 l0 85 -75 0 -75 0 0 -85z"/>
<path d="M950 655 c0 -78 2 -85 20 -85 17 0 19 8 22 68 l3 67 42 6 c38 5 44 2
64 -24 l21 -29 -31 -44 c-28 -41 -29 -44 -10 -44 11 0 30 12 43 26 l22 26 17
-26 c10 -14 26 -26 37 -26 26 0 25 3 -6 49 l-26 40 26 38 c23 34 24 38 9 42
-10 2 -26 -8 -38 -24 l-22 -26 -17 25 c-15 24 -22 26 -96 26 l-80 0 0 -85z"/>
</g>
</svg>
