<?xml version="1.0" standalone="no"?>
<!DOCTYPE svg PUBLIC "-//W3C//DTD SVG 20010904//EN"
 "http://www.w3.org/TR/2001/REC-SVG-20010904/DTD/svg10.dtd">
<svg version="1.0" xmlns="http://www.w3.org/2000/svg"
 width="480.000000pt" height="360.000000pt" viewBox="0 0 480.000000 360.000000"
 preserveAspectRatio="xMidYMid meet">

<g transform="translate(0.000000,360.000000) scale(0.100000,-0.100000)"
fill="#000000" stroke="none">
<path d="M90 1790 l0 -420 430 0 430 0 0 420 0 420 -430 0 -430 0 0 -420z
m830 5 l0 -405 -402 2 -403 3 -3 390 c-1 214 0 396 3 402 3 10 93 13 405 13
l400 0 0 -405z"/>
<path d="M177 2132 l-26 -27 -2 -307 c-2 -336 0 -347 57 -368 33 -13 595 -13
628 0 53 20 56 42 56 370 l0 302 -29 29 -29 29 -314 0 -314 0 -27 -28z m491
-31 c41 -21 126 -90 119 -97 -1 -2 -25 3 -52 11 -26 8 -60 15 -75 15 -15 0
-33 7 -40 15 -9 11 -34 15 -100 15 -66 0 -91 -4 -100 -15 -7 -8 -25 -15 -40
-15 -15 0 -48 -6 -73 -14 -57 -17 -63 -3 -14 35 79 63 130 79 242 76 70 -3
100 -8 133 -26z m52 -109 l35 -8 3 -187 2 -187 -25 0 c-32 0 -41 22 -21 52 24
33 21 97 -6 125 -16 18 -32 23 -69 23 -29 0 -51 6 -59 15 -8 10 -30 15 -61 15
-29 0 -53 -6 -63 -15 -9 -9 -33 -15 -60 -15 -63 0 -86 -24 -86 -88 0 -27 7
-57 16 -70 8 -12 12 -27 9 -32 -10 -17 -53 -11 -59 8 -11 35 -4 342 8 350 43
28 334 38 436 14z m-470 -197 c0 -125 -4 -195 -10 -195 -6 0 -22 26 -36 58
-38 84 -38 184 1 270 15 34 32 62 36 62 5 0 9 -88 9 -195z m590 117 c62 -166
-13 -348 -176 -428 -51 -25 -71 -29 -144 -29 -73 0 -93 4 -145 29 -63 30 -100
59 -116 89 -9 15 -4 17 40 17 41 0 49 -3 45 -15 -5 -13 18 -15 176 -15 158 0
181 2 176 15 -4 12 4 15 44 15 l50 0 0 201 c0 176 2 200 15 189 8 -6 24 -37
35 -68z m-277 -117 c4 -10 25 -15 69 -17 l63 -3 3 -50 c5 -72 -2 -75 -184 -75
-147 0 -154 1 -168 22 -18 26 -20 61 -6 89 9 15 22 19 71 19 44 0 61 4 65 15
8 20 80 21 87 0z m-173 -179 c0 -15 -24 -28 -34 -19 -13 14 -5 33 14 33 11 0
20 -6 20 -14z m48 -3 c-4 -22 -22 -20 -26 1 -2 10 3 16 13 16 10 0 15 -7 13
-17z m132 7 c0 -5 -22 -10 -50 -10 -27 0 -50 5 -50 10 0 6 23 10 50 10 28 0
50 -4 50 -10z m60 -4 c0 -8 -4 -17 -8 -20 -13 -8 -35 11 -28 23 10 16 36 14
36 -3z m60 0 c0 -15 -24 -28 -34 -19 -13 14 -5 33 14 33 11 0 20 -6 20 -14z
m-280 -30 c0 -3 -4 -8 -10 -11 -5 -3 -10 -1 -10 4 0 6 5 11 10 11 6 0 10 -2
10 -4z m178 -2 c-9 -8 -127 -8 -135 -1 -3 4 27 7 67 7 40 0 71 -3 68 -6z m62
-4 c0 -5 -2 -10 -4 -10 -3 0 -8 5 -11 10 -3 6 -1 10 4 10 6 0 11 -4 11 -10z"/>
<path d="M1200 2062 c-29 -9 -50 -35 -50 -62 0 -70 88 -68 113 3 13 36 -24 71
-63 59z m28 -58 c-4 -21 -39 -26 -45 -8 -2 7 4 19 13 28 19 20 38 8 32 -20z"/>
<path d="M1424 2059 c-12 -4 -26 -21 -33 -37 -17 -41 -1 -72 37 -72 35 0 49
10 61 43 19 49 -17 84 -65 66z m34 -55 c-5 -26 -38 -31 -38 -7 0 24 21 46 33
34 5 -5 7 -17 5 -27z"/>
<path d="M1291 2014 c-17 -26 -31 -51 -31 -56 0 -12 24 -10 38 4 10 10 17 10
33 -1 29 -18 38 -4 30 49 -8 62 -30 63 -70 4z"/>
<path d="M1596 2051 c-4 -5 -9 -30 -12 -55 -6 -38 -4 -46 9 -46 9 0 17 10 19
22 2 13 11 24 21 26 14 3 18 -2 15 -20 -2 -15 2 -23 12 -23 19 0 42 85 28 100
-7 7 -15 3 -25 -12 -16 -23 -45 -21 -36 3 6 16 -22 20 -31 5z"/>
<path d="M1756 2043 c-3 -10 -8 -35 -12 -55 l-6 -38 41 0 c30 0 41 4 41 15 0
8 -9 15 -20 15 -11 0 -20 5 -20 10 0 6 11 10 25 10 14 0 25 5 25 10 0 6 -9 10
-20 10 -11 0 -20 5 -20 10 0 6 11 10 25 10 14 0 25 5 25 10 0 6 -18 10 -39 10
-29 0 -41 -5 -45 -17z"/>
<path d="M1913 2040 c-40 -24 -43 -53 -7 -77 25 -16 28 -16 63 3 44 23 51 51
20 75 -30 23 -37 23 -76 -1z m14 -42 c-3 -7 -5 -2 -5 12 0 14 2 19 5 13 2 -7
2 -19 0 -25z m40 0 c-3 -8 -6 -5 -6 6 -1 11 2 17 5 13 3 -3 4 -12 1 -19z"/>
<path d="M2066 2051 c-3 -5 1 -12 10 -15 12 -5 14 -15 9 -46 -5 -32 -4 -40 8
-40 15 0 19 7 31 62 4 16 11 27 17 25 7 -1 14 4 16 11 5 14 -82 18 -91 3z"/>
<path d="M2212 2033 c-6 -16 -14 -40 -18 -55 -6 -27 -5 -28 35 -28 30 0 41 4
41 15 0 8 -9 15 -21 15 -11 0 -17 5 -14 10 3 6 15 10 26 10 10 0 19 5 19 10 0
6 -7 10 -15 10 -8 0 -15 5 -15 10 0 6 12 10 26 10 14 0 23 4 19 10 -3 6 -21
10 -39 10 -27 0 -36 -5 -44 -27z"/>
<path d="M2356 2048 c-2 -7 -8 -29 -15 -49 -15 -49 -16 -49 28 -49 29 0 44 6
55 21 18 26 11 49 -15 49 -10 0 -19 5 -19 10 0 6 11 10 25 10 14 0 25 5 25 10
0 15 -80 12 -84 -2z m44 -58 c0 -5 -7 -10 -16 -10 -8 0 -12 5 -9 10 3 6 10 10
16 10 5 0 9 -4 9 -10z"/>
<path d="M2508 2016 c-40 -63 -35 -82 13 -53 17 10 23 10 26 0 3 -7 11 -13 19
-13 15 0 18 28 8 79 -9 44 -34 39 -66 -13z"/>
<path d="M2657 2053 c-15 -15 -5 -23 19 -17 19 5 25 4 20 -5 -4 -6 -14 -11
-22 -11 -8 0 -14 -4 -14 -10 0 -5 7 -10 15 -10 8 0 15 -4 15 -10 0 -5 -13 -10
-30 -10 -20 0 -30 -5 -30 -15 0 -11 11 -15 39 -15 40 0 67 20 58 43 -3 8 -1
20 3 28 5 8 4 19 -2 26 -11 14 -60 18 -71 6z"/>
<path d="M2815 2035 c-8 -14 -22 -37 -31 -51 -19 -32 -12 -41 20 -25 19 10 27
10 44 0 29 -18 34 -9 26 50 -5 40 -10 51 -25 51 -10 0 -25 -11 -34 -25z"/>
<path d="M3585 1990 c-9 -15 21 -59 50 -72 53 -24 165 22 165 67 0 24 -60 19
-88 -7 l-24 -23 -15 23 c-16 23 -76 32 -88 12z"/>
<path d="M2328 1897 c-51 -16 -127 -82 -146 -126 -8 -20 -20 -58 -27 -86 l-12
-50 -7 104 c-4 57 -10 117 -13 133 l-6 29 -84 -3 -85 -3 -24 -40 c-13 -22 -42
-71 -64 -110 -23 -38 -59 -99 -80 -135 -22 -36 -40 -68 -40 -72 0 -5 34 -8 75
-8 73 0 75 1 90 30 13 26 21 30 56 30 36 0 40 -3 46 -30 l6 -31 71 3 71 3 -2
50 -3 50 21 -36 c38 -66 137 -96 218 -68 17 6 35 19 40 28 11 19 26 111 18
111 -2 0 -18 -7 -33 -15 -60 -31 -104 -13 -104 44 0 67 69 108 131 77 18 -9
34 -14 36 -13 2 2 10 28 18 58 12 46 12 56 0 68 -19 19 -119 24 -167 8z m-322
-203 c-3 -8 -15 -14 -26 -14 -20 0 -20 1 -4 32 14 28 17 29 26 14 5 -9 7 -24
4 -32z"/>
<path d="M1116 1848 c-31 -118 -66 -274 -66 -296 0 -22 3 -23 73 -20 l72 3 14
59 14 59 22 -59 22 -59 73 -3 c40 -2 79 -1 86 2 13 5 -4 54 -53 153 -17 34
-13 45 32 88 6 6 34 36 64 68 l54 57 -84 0 -85 0 -48 -57 -49 -58 7 40 c4 22
9 48 12 58 5 15 -3 17 -70 17 l-75 0 -15 -52z"/>
<path d="M1537 1883 c-3 -10 -17 -67 -31 -128 -15 -60 -33 -133 -40 -162 -8
-28 -12 -54 -8 -57 12 -12 143 -6 147 7 2 6 9 31 15 53 10 42 10 42 68 49 74
8 128 43 153 98 27 60 24 84 -15 123 l-34 34 -125 0 c-111 0 -126 -2 -130 -17z
m168 -93 c8 -13 -13 -40 -31 -40 -14 0 -19 31 -7 43 10 10 31 8 38 -3z"/>
<path d="M2537 1893 c-4 -3 -7 -15 -7 -26 0 -11 -7 -43 -15 -71 -35 -121 -63
-252 -56 -259 4 -4 39 -7 77 -5 l69 3 13 63 c14 61 14 62 48 62 39 0 39 1 19
-64 -9 -28 -11 -54 -7 -58 5 -5 40 -8 78 -6 l68 3 13 55 c18 81 61 261 69 288
6 23 6 23 -71 20 l-79 -3 -11 -50 c-15 -67 -19 -72 -55 -67 -16 2 -30 5 -30 7
0 1 7 22 15 45 24 69 24 70 -58 70 -41 0 -77 -3 -80 -7z"/>
<path d="M2906 1778 c-15 -68 -34 -145 -42 -172 -23 -74 -20 -76 99 -76 134 0
188 17 228 73 62 86 17 162 -98 166 -35 1 -40 11 -24 53 4 13 11 35 15 51 l6
27 -78 0 -78 0 -28 -122z m161 -114 c7 -19 -9 -37 -30 -32 -11 2 -12 9 -6 26
10 26 27 29 36 6z"/>
<path d="M3256 1778 c-15 -68 -34 -147 -42 -176 -8 -29 -12 -57 -9 -62 3 -6
37 -10 75 -10 68 0 70 1 76 28 6 26 21 87 60 247 9 39 19 76 22 83 3 9 -16 12
-75 12 l-78 0 -29 -122z"/>
<path d="M3467 1848 c-32 -119 -67 -274 -67 -295 0 -21 4 -23 63 -23 68 0 63
-3 146 98 24 29 46 51 48 48 2 -2 -3 -25 -11 -50 -9 -26 -16 -58 -16 -71 0
-24 3 -25 64 -25 39 0 67 5 74 13 5 6 17 46 26 87 9 41 22 98 30 125 7 28 16
71 20 98 l7 47 -68 0 -68 -1 -59 -75 c-32 -41 -60 -73 -62 -71 -3 2 2 30 11
63 22 87 24 84 -55 84 l-69 0 -14 -52z"/>
<path d="M4082 1879 c-81 -40 -116 -132 -73 -190 25 -34 27 -30 -47 -110 -39
-42 -35 -45 55 -47 66 -2 65 -2 109 58 l26 35 -7 -35 c-4 -19 -8 -39 -9 -44 0
-5 30 -9 69 -10 l69 -1 22 80 c32 123 65 259 64 273 0 9 -30 12 -117 12 -100
0 -125 -3 -161 -21z m108 -92 c0 -13 -6 -32 -14 -43 -13 -17 -16 -18 -31 -3
-24 24 -4 57 43 68 1 1 2 -9 2 -22z"/>
<path d="M4392 1818 c-52 -202 -69 -278 -63 -279 34 -6 135 -2 141 6 4 6 12
30 17 55 8 45 9 45 53 48 71 4 88 10 130 48 30 27 40 45 45 79 15 100 -22 125
-186 125 l-116 0 -21 -82z m185 -34 c6 -16 -19 -44 -39 -44 -10 0 -11 44 -1
53 12 13 34 7 40 -9z"/>
</g>
</svg>
