<svg width="146" height="73" viewBox="0 0 146 73" fill="none" xmlns="http://www.w3.org/2000/svg">
<path d="M32.3532 65.0893L6.8877 52.1474V22.2449H7.04567L32.3216 7.91071L57.8818 22.3398V22.4664L57.6923 52.1474L57.5659 52.2107L32.3532 65.0893ZM7.33002 51.8942L32.132 64.4881L32.1636 47.6225L22.1164 42.7178L22.2112 30.3771L7.33002 22.8461V51.8942ZM32.6059 47.6225L32.5743 64.4564L57.2815 51.8626L57.4711 22.8461L42.5899 30.4088L42.6847 42.7495L42.5583 42.8127L32.6059 47.6225ZM22.5588 42.433L32.1636 47.1478L32.1952 35.44L22.6535 30.5986L22.5588 42.433ZM32.6375 35.44L32.6059 47.1162L42.2108 42.4647L42.116 30.6303L32.6375 35.44ZM22.9063 30.2189L32.4164 35.0286L41.8632 30.2189L32.3532 25.3143L22.9063 30.2189ZM32.3216 24.8396H32.448L42.4003 29.9974L57.1868 22.4664L32.3216 8.41699L7.58278 22.4664L22.4324 29.9974L32.3216 24.8396Z" fill="white"/>
<path d="M146 48.9515H75.9854V50.3121H146V48.9515Z" fill="white"/>
<path d="M86.1283 55.5015V60.3745H85.6544V55.5015H84.3906V55.0585H87.3605V55.5015H86.1283ZM89.6038 60.3429V55.0585H92.3525V55.5015H90.1093V57.4317H92.0366V57.8747H90.1093V59.8682H92.3525V60.3429H89.6038ZM96.9654 60.3429L95.8912 58.0962L94.8169 60.3429H94.2798L95.6384 57.6216L94.3746 55.0585H94.9117L95.9228 57.1786L96.9022 55.0585H97.4393L96.1755 57.6216L97.5341 60.3429H96.9654ZM102.242 60.3429V57.8747H100.22V60.3429H99.7457V55.0585H100.22V57.4317H102.242V55.0585H102.747V60.3429H102.242ZM108.308 58.824C108.308 59.0455 108.276 59.267 108.182 59.4569C108.055 59.8366 107.771 60.1214 107.392 60.2796C107.202 60.3745 106.981 60.4062 106.76 60.4062C106.539 60.4062 106.286 60.3745 106.065 60.2796C105.875 60.2163 105.717 60.0897 105.591 59.9315C105.464 59.7733 105.37 59.6151 105.306 59.4252C105.243 59.2354 105.212 59.0139 105.212 58.7924V56.5774C105.212 56.3875 105.243 56.1977 105.306 56.0078C105.37 55.818 105.464 55.6597 105.591 55.5332C105.717 55.375 105.875 55.28 106.065 55.1851C106.286 55.0902 106.507 55.0585 106.76 55.0585C106.981 55.0585 107.202 55.0902 107.423 55.1851C107.613 55.2484 107.771 55.375 107.897 55.5332C108.024 55.6597 108.118 55.8496 108.182 56.0078C108.245 56.1977 108.276 56.3875 108.276 56.5774L108.308 58.824ZM107.802 56.5457C107.802 56.4192 107.771 56.2926 107.739 56.1977C107.708 56.0711 107.644 55.9445 107.55 55.8496C107.455 55.7547 107.36 55.6597 107.234 55.5965C107.076 55.5332 106.918 55.5015 106.76 55.5015C106.602 55.5015 106.444 55.5332 106.286 55.5965C106.16 55.6597 106.065 55.7547 105.97 55.8496C105.875 55.9445 105.812 56.0711 105.78 56.1977C105.749 56.3242 105.717 56.4508 105.717 56.5774V58.7924C105.717 58.9506 105.749 59.1088 105.78 59.267C105.812 59.3936 105.875 59.5202 105.97 59.6467C106.065 59.7417 106.16 59.8366 106.286 59.8999C106.444 59.9632 106.602 59.9948 106.76 59.9948C106.886 59.9948 107.044 59.9632 107.171 59.8999C107.297 59.8366 107.392 59.7733 107.486 59.6784C107.581 59.5835 107.644 59.4569 107.708 59.3303C107.771 59.2037 107.771 59.0455 107.771 58.9189L107.802 56.5457ZM113.426 55.5015H111.689V57.8747C111.689 58.2544 111.657 58.6342 111.625 58.9822C111.594 59.2354 111.531 59.4885 111.404 59.71C111.309 59.8999 111.215 60.0581 111.057 60.153C110.899 60.2796 110.741 60.3745 110.551 60.4378L110.456 60.2479C110.425 60.1847 110.393 60.1214 110.362 60.0581C110.488 59.9948 110.614 59.8999 110.741 59.8049C110.867 59.71 110.962 59.5834 111.025 59.4569C111.12 59.267 111.152 59.0772 111.183 58.8873C111.215 58.5709 111.246 58.2545 111.246 57.938V55.0269H113.932V60.3429H113.426V55.5015ZM119.493 58.824C119.493 59.0455 119.461 59.267 119.366 59.4569C119.24 59.8366 118.955 60.1214 118.576 60.2796C118.387 60.3745 118.166 60.4062 117.944 60.4062C117.723 60.4062 117.47 60.3745 117.249 60.2796C117.06 60.2163 116.902 60.0897 116.775 59.9315C116.649 59.7733 116.554 59.6151 116.491 59.4252C116.428 59.2354 116.396 59.0139 116.396 58.7924V56.5774C116.396 56.3875 116.428 56.1977 116.491 56.0078C116.554 55.818 116.649 55.6597 116.775 55.5332C116.902 55.375 117.06 55.28 117.249 55.1851C117.47 55.0902 117.692 55.0585 117.944 55.0585C118.166 55.0585 118.387 55.0902 118.608 55.1851C118.797 55.2484 118.955 55.375 119.082 55.5332C119.208 55.6597 119.303 55.8496 119.366 56.0078C119.429 56.1977 119.461 56.3875 119.461 56.5774L119.493 58.824ZM118.987 56.5457C118.987 56.4192 118.955 56.2926 118.924 56.1977C118.892 56.0711 118.829 55.9445 118.734 55.8496C118.639 55.7547 118.545 55.6597 118.418 55.5965C118.26 55.5332 118.102 55.5015 117.944 55.5015C117.786 55.5015 117.628 55.5332 117.47 55.5965C117.344 55.6597 117.249 55.7547 117.155 55.8496C117.06 55.9445 116.997 56.0711 116.965 56.1977C116.933 56.3242 116.902 56.4508 116.902 56.5774V58.7924C116.902 58.9506 116.933 59.1088 116.965 59.267C116.997 59.3936 117.06 59.5202 117.155 59.6467C117.249 59.7417 117.344 59.8366 117.47 59.8999C117.628 59.9632 117.786 59.9948 117.944 59.9948C118.071 59.9948 118.229 59.9632 118.355 59.8999C118.482 59.8366 118.576 59.7733 118.671 59.6784C118.766 59.5835 118.829 59.4569 118.892 59.3303C118.955 59.2037 118.955 59.0455 118.955 58.9189L118.987 56.5457ZM122.526 55.5015V60.3429H122.02V55.0585H124.706V55.5015H122.526ZM127.012 60.3429V55.0585H127.486V59.3936H127.518L129.761 55.0269H130.235V60.3429H129.761V55.9762H129.729L127.486 60.3429H127.012ZM133.9 53.7928C133.931 53.9194 133.995 54.046 134.089 54.1409C134.184 54.2358 134.342 54.2991 134.5 54.2991C134.658 54.2991 134.816 54.2358 134.911 54.1409C135.006 54.046 135.069 53.9194 135.069 53.7928H135.48C135.48 53.8877 135.448 54.0143 135.416 54.1092C135.385 54.2042 135.322 54.2991 135.258 54.394C135.164 54.489 135.069 54.5522 134.974 54.6155C134.848 54.6788 134.69 54.7105 134.532 54.7105C134.374 54.7105 134.216 54.6788 134.089 54.6155C133.963 54.5522 133.868 54.489 133.773 54.394C133.71 54.2991 133.647 54.2042 133.615 54.1092C133.584 54.0143 133.552 53.8877 133.552 53.7928H133.9ZM132.857 60.3429V55.0585H133.331V59.3936H133.363L135.606 55.0269H136.08V60.3429H135.606V55.9762H135.574L133.331 60.3429H132.857Z" fill="white"/>
<path d="M32.5111 73L32.1952 72.8418L0 56.4824V18.4161L32.4795 0L65.1171 18.4161L64.8643 56.4824L64.4852 56.6723L32.5111 73ZM1.35858 55.6597L32.5111 71.4811L63.5689 55.6281L63.7901 19.1756L32.5111 1.51886L1.35858 19.2072V55.6597Z" fill="white"/>
<path d="M79.335 43.2558V19.049H84.2006V27.8141C85.1484 27.3711 86.0647 26.8331 86.9177 26.2003C87.7708 25.5674 88.5607 24.8713 89.3189 24.1435C90.0772 23.3841 90.7723 22.5614 91.4042 21.707C92.0677 20.8527 92.668 19.9667 93.2367 19.049H99.4609C98.671 20.1565 97.8496 21.264 97.0281 22.3399C96.2066 23.4157 95.322 24.4283 94.4057 25.4092C93.5211 26.3585 92.5416 27.2761 91.5306 28.1305C90.5196 28.9532 89.4453 29.7126 88.3079 30.3455C89.1926 30.7252 90.0456 31.1999 90.8039 31.7694C91.6254 32.3706 92.3836 33.0035 93.1103 33.6996C93.837 34.4274 94.5321 35.1869 95.1956 35.9779C95.8591 36.8006 96.491 37.6234 97.0913 38.4461C97.6916 39.2688 98.2603 40.1231 98.7658 40.9458C99.3029 41.7686 99.8084 42.5596 100.282 43.3191H94.6269C93.4263 41.4838 92.3205 39.9333 91.341 38.6676C90.488 37.5601 89.5717 36.5159 88.5923 35.5666C87.8972 34.8704 87.1073 34.2376 86.2542 33.7313C85.5907 33.3516 84.8957 33.0668 84.169 32.9086V43.3191H79.335V43.2558Z" fill="white"/>
<path d="M122.936 19.049C122.304 20.9476 121.673 22.7829 121.041 24.5549C120.409 26.3269 119.714 28.0989 118.987 29.7759C118.26 31.453 117.502 33.0984 116.681 34.6806C115.859 36.2627 115.006 37.7816 114.09 39.2371C113.616 39.9966 113.079 40.6927 112.51 41.3889C112.068 41.9268 111.531 42.3698 110.962 42.7495C110.425 43.0659 109.824 43.3191 109.224 43.4456C108.529 43.6039 107.802 43.6671 107.076 43.6355C106.507 43.6355 105.907 43.5722 105.338 43.4456C104.611 43.2874 103.916 43.0343 103.253 42.6546L103.853 38.4461C104.359 38.7309 104.769 38.984 105.085 39.1422C105.37 39.2688 105.654 39.3954 105.938 39.5219C106.128 39.5852 106.286 39.6485 106.475 39.6801C106.602 39.6801 106.728 39.7118 106.855 39.7118C107.107 39.7118 107.36 39.6801 107.613 39.6169C107.897 39.5536 108.15 39.3954 108.371 39.2055C108.687 38.9207 108.971 38.6359 109.224 38.2879C109.603 37.7499 109.951 37.212 110.235 36.6424C108.182 34.0161 106.349 31.2315 104.738 28.3204C103.095 25.3143 101.641 22.2449 100.409 19.049H105.844C106.728 21.4855 107.802 23.8587 109.003 26.1686C110.109 28.2887 111.341 30.3139 112.763 32.2441C113.237 31.1682 113.679 30.1556 114.09 29.1747C114.501 28.1938 114.88 27.2445 115.259 26.3269C115.733 25.1877 116.143 24.0169 116.554 22.8145C116.965 21.6121 117.344 20.3464 117.723 19.049H122.936Z" fill="white"/>
<path d="M130.203 22.9094V39.3953H134.753C135.29 39.3953 135.795 39.3321 136.301 39.2055C136.743 39.1106 137.185 38.8891 137.533 38.6043C137.88 38.3195 138.165 37.9398 138.354 37.4968C138.576 36.9589 138.67 36.3893 138.639 35.8197C138.67 35.2818 138.576 34.7439 138.354 34.2059C138.196 33.8262 137.944 33.4781 137.596 33.225C137.249 32.9719 136.838 32.8136 136.427 32.7187C135.922 32.6238 135.416 32.5605 134.911 32.5921H131.625V28.7317H134.879C136.048 28.7317 137.217 28.8583 138.354 29.1431C139.365 29.3962 140.282 29.8392 141.135 30.4404C141.893 31.01 142.525 31.7694 142.967 32.6238C143.441 33.5731 143.662 34.6489 143.631 35.6931C143.662 36.769 143.41 37.8449 142.967 38.8574C142.525 39.7751 141.925 40.5978 141.135 41.2306C140.313 41.9268 139.334 42.4331 138.323 42.7495C137.154 43.0976 135.953 43.2874 134.721 43.2874H125.306V19.049H141.735V22.9094H130.203Z" fill="white"/>
</svg>
